<?xml version="1.0" encoding="UTF-8"?>
<svg width="426px" height="250px" viewBox="0 0 426 250" version="1.1" xmlns="http://www.w3.org/2000/svg" xmlns:xlink="http://www.w3.org/1999/xlink">
    <!-- Generator: sketchtool 64 (101010) - https://sketch.com -->
    <title>C5434159-D131-4487-82AB-1C522297A9DC</title>
    <desc>Created with sketchtool.</desc>
    <defs>
        <rect id="path-1" x="0" y="0" width="426" height="250" rx="12"></rect>
        <linearGradient x1="0%" y1="32.7800921%" x2="100%" y2="65.7269686%" id="linearGradient-3">
            <stop stop-color="#5DA4DD" offset="0%"></stop>
            <stop stop-color="#7ECFDF" offset="100%"></stop>
        </linearGradient>
    </defs>
    <g id="-Desktop---Phase1" stroke="none" stroke-width="1" fill="none" fill-rule="evenodd">
        <g id="Homepage---Template-" transform="translate(-1043.000000, -801.000000)">
            <g id="02---Features" transform="translate(131.000000, 801.000000)">
                <g id="Azure" transform="translate(912.000000, 0.000000)">
                    <g id="Bitmap">
                        <mask id="mask-2" fill="white">
                            <use xlink:href="#path-1"></use>
                        </mask>
                        <use id="Mask" fill="#00425D" xlink:href="#path-1"></use>
                        <g id="Group-40" mask="url(#mask-2)">
                            <g transform="translate(-0.000000, 0.000000)">
                                <rect id="Rectangle" stroke="none" fill="url(#linearGradient-3)" fill-rule="evenodd" x="0" y="0" width="426" height="250" rx="12"></rect>
                                <g id="Group-10" stroke="none" stroke-width="1" fill="none" fill-rule="evenodd" transform="translate(115.000000, 103.000000)">
                                    <g id="Group-35">
                                        <g id="brands-and-logotypes" fill-rule="nonzero">
                                            <polygon id="Path" fill="#1588AE" points="18.1151199 41.0171918 0 38.3950171 0 23.8630993 18.1151199 23.8630993"></polygon>
                                            <polygon id="Path" fill="#2F9A87" points="44.8992123 21.0375 21.0066781 21.0375 21.0151541 3.45976027 44.8992123 0.0013869863"></polygon>
                                            <polygon id="Path" fill="#F4B459" points="44.8992123 44.8978253 20.9982021 41.4366781 21.02625 23.8658733 44.8992123 23.8658733"></polygon>
                                            <polygon id="Path" fill="#E2574C" points="18.1151199 21.0375 0 21.0375 0 6.50419521 18.1151199 3.88063356"></polygon>
                                        </g>
                                        <text id="Microsoft" font-family="Roboto-Bold, Roboto" font-size="30" font-weight="bold" line-spacing="35" fill="#FFFFFF">
                                            <tspan x="65" y="33">Microsoft</tspan>
                                        </text>
                                    </g>
                                </g>
                                <g id="Group-36" stroke="none" stroke-width="1" fill="none" fill-rule="evenodd" transform="translate(177.000000, 22.000000)">
                                    <g id="cloudy" transform="translate(-0.000000, 0.000000)" fill="#FFFFFF" fill-rule="nonzero">
                                        <path d="M57.0694962,17.0926543 C56.180958,17.0926543 55.2941993,17.1810335 54.4234556,17.3571991 C53.7668391,14.0800474 51.6439565,11.2845331 48.6633795,9.77140845 C45.6833957,8.2582837 42.1737294,8.19481665 39.1403622,9.59880187 C36.3952657,2.03733033 28.0401599,-1.86678064 20.4786883,0.878315868 C12.9172168,3.62341238 9.01310598,11.9791113 11.7582025,19.5399897 C5.13450048,19.7493715 -0.0976724071,25.2318536 0.00138354389,31.8579281 C0.101032607,38.484596 5.49572857,43.8069276 12.1229895,43.8176042 L57.0694962,43.8176042 C64.4488708,43.8176042 70.4319712,37.8350971 70.4319712,30.4551292 C70.4319712,23.0751616 64.4488708,17.0926543 57.0694962,17.0926543 Z" id="Path"></path>
                                    </g>
                                    <g id="brands-and-logotypes-(1)" transform="translate(22.000000, 16.000000)" fill="#FF5722" fill-rule="nonzero">
                                        <polygon id="Path" points="11.25 0 0 4.375 0 16.25 3.75 15 3.75 5 11.25 3.75 11.25 17.555 0 16.25 11.25 20 17.5 18.125 17.5 1.875"></polygon>
                                    </g>
                                </g>
                                <g id="cloudy" stroke="none" stroke-width="1" fill="none" fill-rule="evenodd" transform="translate(24.000000, 176.000000)">
                                    <path d="M57.0694962,17.0926543 C56.180958,17.0926543 55.2941993,17.1810335 54.4234556,17.3571991 C53.7668391,14.0800474 51.6439565,11.2845331 48.6633795,9.77140845 C45.6833957,8.2582837 42.1737294,8.19481665 39.1403622,9.59880187 C36.3952657,2.03733033 28.0401599,-1.86678064 20.4786883,0.878315868 C12.9172168,3.62341238 9.01310598,11.9791113 11.7582025,19.5399897 C5.13450048,19.7493715 -0.0976724071,25.2318536 0.00138354389,31.8579281 C0.101032607,38.484596 5.49572857,43.8069276 12.1229895,43.8176042 L57.0694962,43.8176042 C64.4488708,43.8176042 70.4319712,37.8350971 70.4319712,30.4551292 C70.4319712,23.0751616 64.4488708,17.0926543 57.0694962,17.0926543 Z" id="Path" fill="#FFFFFF" fill-rule="nonzero"></path>
                                </g>
                                <g id="Group-37" stroke="none" stroke-width="1" fill="none" fill-rule="evenodd" transform="translate(319.000000, 176.000000)">
                                    <g id="cloudy" transform="translate(-0.000000, 0.000000)" fill="#FFFFFF" fill-rule="nonzero">
                                        <path d="M57.0694962,17.0926543 C56.180958,17.0926543 55.2941993,17.1810335 54.4234556,17.3571991 C53.7668391,14.0800474 51.6439565,11.2845331 48.6633795,9.77140845 C45.6833957,8.2582837 42.1737294,8.19481665 39.1403622,9.59880187 C36.3952657,2.03733033 28.0401599,-1.86678064 20.4786883,0.878315868 C12.9172168,3.62341238 9.01310598,11.9791113 11.7582025,19.5399897 C5.13450048,19.7493715 -0.0976724071,25.2318536 0.00138354389,31.8579281 C0.101032607,38.484596 5.49572857,43.8069276 12.1229895,43.8176042 L57.0694962,43.8176042 C64.4488708,43.8176042 70.4319712,37.8350971 70.4319712,30.4551292 C70.4319712,23.0751616 64.4488708,17.0926543 57.0694962,17.0926543 Z" id="Path"></path>
                                    </g>
                                    <g id="Logo" transform="translate(27.000000, 17.000000)">
                                        <polygon id="Path-2" fill="#F05A30" points="2.23938224 0 7.95366795 0 16.4478764 16.6023166 12.2779923 20 1.93050193 0"></polygon>
                                        <polygon id="Path-3" fill="#FFAF2A" points="6.87258687 15.7528958 2.85714286 8.03088803 0 8.03088803 4.86486486 17.4517375"></polygon>
                                    </g>
                                </g>
                                <g id="doc-format" stroke="none" stroke-width="1" fill="none" fill-rule="evenodd" transform="translate(49.000000, 193.000000)">
                                    <g id="Group" fill="#1565C0" fill-rule="nonzero">
                                        <path d="M11.9778862,0.122520325 C11.875,0.0389430894 11.7395528,0.00699186992 11.6102033,0.0358130081 L0.336504065,2.63743902 C0.138089431,2.68304878 -0.00191056911,2.86052846 -1.93173131e-05,3.06410569 L-1.93173131e-05,17.8066667 C-1.93173131e-05,18.0206098 0.156219512,18.202561 0.367682927,18.2350813 L11.6413821,19.9695122 C11.8780894,20.0058943 12.0994715,19.8435366 12.1358537,19.6068699 C12.139187,19.585122 12.1408964,19.5631301 12.1408964,19.5411382 L12.1408964,0.462479675 C12.1413008,0.330243902 12.0812602,0.205081301 11.9778862,0.122520325 Z" id="Path"></path>
                                        <path d="M20.3794309,18.2402439 L11.7073171,18.2402439 C11.4678455,18.2402439 11.2736992,18.0460976 11.2736992,17.806626 C11.2736992,17.5671545 11.4678455,17.3730081 11.7073171,17.3730081 L19.945813,17.3730081 L19.945813,2.6304878 L11.7073171,2.6304878 C11.4678455,2.6304878 11.2736992,2.43634146 11.2736992,2.19686992 C11.2736992,1.95739837 11.4678455,1.76329268 11.7073171,1.76329268 L20.3793902,1.76329268 C20.6188618,1.76329268 20.8130081,1.95743902 20.8130081,2.19691057 L20.8130081,17.8066667 C20.8130081,18.0461382 20.6189024,18.2402439 20.3794309,18.2402439 Z" id="Path"></path>
                                    </g>
                                    <path d="M7.37130081,13.9042278 C7.17808943,13.9040244 7.00837398,13.7759756 6.95504065,13.5902846 L5.63686992,8.97845528 L4.31869919,13.5902846 C4.22349593,13.8204065 3.9597561,13.9297967 3.7295935,13.8345935 C3.61894309,13.7888211 3.53105691,13.700935 3.48528455,13.5902846 L1.75089431,7.5198374 C1.67829268,7.29162602 1.80447154,7.04780488 2.03268293,6.97520325 C2.26089431,6.90260163 2.50471545,7.02878049 2.57731707,7.25699187 C2.57987805,7.26504065 2.58219512,7.27317073 2.58430894,7.28134146 L3.90243902,11.8922764 L5.22060976,7.2804878 C5.31581301,7.05036585 5.57955285,6.94097561 5.80971545,7.03617886 C5.92036585,7.08195122 6.00825203,7.1698374 6.05402439,7.2804878 L7.37130081,11.8923171 L8.68947154,7.28138211 C8.75186992,7.05317073 8.98747967,6.91873984 9.21569106,6.98113821 C9.21894309,6.98203252 9.22215447,6.98296748 9.2254065,6.98390244 C9.4554878,7.0498374 9.58861789,7.28971545 9.52284553,7.5198374 L7.78841463,13.5902846 C7.735,13.7763008 7.56479675,13.9043902 7.37130081,13.9042278 Z" id="Path" fill="#FAFAFA" fill-rule="nonzero"></path>
                                    <g id="Group" transform="translate(11.260163, 4.349593)" fill="#1565C0" fill-rule="nonzero">
                                        <path d="M7.3848374,0.882520325 L0.447154472,0.882520325 C0.207682927,0.882520325 0.0135365854,0.688373984 0.0135365854,0.448902439 C0.0135365854,0.209430894 0.207682927,0.0152845528 0.447154472,0.0152845528 L7.3848374,0.0152845528 C7.62430894,0.0152845528 7.81845528,0.209430894 7.81845528,0.448902439 C7.81845528,0.688414634 7.62430894,0.882520325 7.3848374,0.882520325 Z" id="Path"></path>
                                        <path d="M7.3848374,3.48414634 L0.447154472,3.48414634 C0.207682927,3.48414634 0.0135365854,3.29 0.0135365854,3.05052846 C0.0135365854,2.81105691 0.207682927,2.61691057 0.447154472,2.61691057 L7.3848374,2.61691057 C7.62430894,2.61691057 7.81845528,2.81105691 7.81845528,3.05052846 C7.81845528,3.29 7.62430894,3.48414634 7.3848374,3.48414634 Z" id="Path"></path>
                                        <path d="M7.3848374,6.08577236 L0.447154472,6.08577236 C0.207682927,6.08577236 0.0135365854,5.89162602 0.0135365854,5.65215447 C0.0135365854,5.41268293 0.207682927,5.21853659 0.447154472,5.21853659 L7.3848374,5.21853659 C7.62430894,5.21853659 7.81845528,5.41268293 7.81845528,5.65215447 C7.81845528,5.89166667 7.62430894,6.08577236 7.3848374,6.08577236 Z" id="Path"></path>
                                        <path d="M7.3848374,8.68739837 L0.447154472,8.68739837 C0.207682927,8.68739837 0.0135365854,8.49325203 0.0135365854,8.25378049 C0.0135365854,8.01430894 0.207682927,7.8201626 0.447154472,7.8201626 L7.3848374,7.8201626 C7.62430894,7.8201626 7.81845528,8.01430894 7.81845528,8.25378049 C7.81845528,8.49329268 7.62430894,8.68739837 7.3848374,8.68739837 Z" id="Path"></path>
                                        <path d="M7.3848374,11.2890244 L0.447154472,11.2890244 C0.207682927,11.2890244 0.0135365854,11.094878 0.0135365854,10.8554065 C0.0135365854,10.615935 0.207682927,10.4217886 0.447154472,10.4217886 L7.3848374,10.4217886 C7.62430894,10.4217886 7.81845528,10.615935 7.81845528,10.8554065 C7.81845528,11.0949187 7.62430894,11.2890244 7.3848374,11.2890244 Z" id="Path"></path>
                                    </g>
                                </g>
                                <g id="Group-38" stroke="none" stroke-width="1" fill="none" fill-rule="evenodd" transform="translate(51.255158, 104.001572)">
                                    <path d="M39.738016,1.13686838e-13 C6.28341981,6.57237267 -6.04763803,27.0170846 2.74484246,61.3341357" id="Path-5" stroke="#FFFFFF" stroke-dasharray="3"></path>
                                    <circle id="Oval" fill="#FFFFFF" cx="3.24484246" cy="61.4984281" r="2.5"></circle>
                                </g>
                                <path d="M386.738016,119 C353.28342,125.572373 340.952362,146.017085 349.744842,180.334136" id="Path-5" stroke="#FFFFFF" stroke-width="1" fill="none" stroke-dasharray="3" transform="translate(366.869008, 149.667068) scale(-1, 1) translate(-366.869008, -149.667068) "></path>
                                <path d="M292.738016,38 C259.28342,44.5723727 246.952362,65.0170846 255.744842,99.3341357" id="Path-5" stroke="#FFFFFF" stroke-width="1" fill="none" stroke-dasharray="3" transform="translate(272.869008, 68.667068) scale(-1, 1) translate(-272.869008, -68.667068) "></path>
                                <circle id="Oval" stroke="none" fill="#FFFFFF" fill-rule="evenodd" cx="383.5" cy="180.5" r="2.5"></circle>
                                <circle id="Oval" stroke="none" fill="#FFFFFF" fill-rule="evenodd" cx="250.5" cy="37.5" r="2.5"></circle>
                            </g>
                        </g>
                    </g>
                </g>
            </g>
        </g>
    </g>
</svg>