<?xml version="1.0" encoding="UTF-8"?>
<svg width="236px" height="225px" viewBox="0 0 236 225" version="1.1" xmlns="http://www.w3.org/2000/svg" xmlns:xlink="http://www.w3.org/1999/xlink">
    <!-- Generator: sketchtool 64 (101010) - https://sketch.com -->
    <title>8AD73490-0061-4875-9FE8-23F2044D7624</title>
    <desc>Created with sketchtool.</desc>
    <defs>
        <polygon id="path-1" points="0.622219626 0.339359944 193.70257 0.339359944 193.70257 106.207154 0.622219626 106.207154"></polygon>
    </defs>
    <g id="-Desktop---Phase1" stroke="none" stroke-width="1" fill="none" fill-rule="evenodd">
        <g id="Homepage---Template-" transform="translate(-225.000000, -1813.000000)">
            <g id="03-Impact-stories" transform="translate(131.000000, 1591.000000)">
                <g id="Work-From-Home" transform="translate(0.000000, 222.000000)">
                    <g id="Group-377" transform="translate(94.000000, 0.000000)">
                        <path d="M190.003107,125.619182 L193.529509,196.293715 C193.556145,196.838341 193.845631,197.335304 194.305444,197.628294 C195.41993,198.339042 196.881379,197.546285 196.891893,196.224322 L197.494754,126.064977 C197.501706,125.211238 196.868061,124.487173 196.020631,124.380631 L191.891425,123.865444 C190.854042,123.735771 189.951238,124.57479 190.003107,125.619182" id="Fill-1" fill="#F05142"></path>
                        <path d="M196.865958,124.385748 L195.363855,196.954907 C195.363855,198.400234 198.506145,198.068692 199.675304,197.218458 L199.910117,197.04743 C200.341893,196.733411 200.608949,196.240654 200.636285,195.707243 L204.207547,125.372664 C204.250304,124.519626 203.67764,123.75771 202.846332,123.561449 L199.040958,122.664252 C197.930678,122.402804 196.865958,123.245327 196.865958,124.385748" id="Fill-3" fill="#FC785D"></path>
                        <polygon id="Fill-5" fill="#0B246E" points="233.164696 105.373598 235.751145 106.354907 235.751145 109.457944 233.164696 109.457944"></polygon>
                        <g id="Group-9" transform="translate(42.056075, 40.492991)">
                            <mask id="mask-2" fill="white">
                                <use xlink:href="#path-1"></use>
                            </mask>
                            <g id="Clip-8"></g>
                            <path d="M115.92035,104.203388 L0.622219626,37.2823598 L67.1976869,2.0603972 C71.718014,-0.331191589 77.1523598,-0.223948598 81.5759579,2.34287383 L192.215678,66.5603972 C194.243481,67.7379673 194.186005,70.6860981 192.11264,71.7830607 L130.299322,104.485864 C125.777593,106.877453 120.343949,106.770911 115.92035,104.203388" id="Fill-7" fill="#F05142" mask="url(#mask-2)"></path>
                        </g>
                        <path d="M157.969206,141.230047 L42.6717757,74.3090187 L109.246542,39.0870561 C113.76757,36.6954673 119.201916,36.8027103 123.624813,39.3695327 L234.264533,103.587056 C236.293037,104.764626 236.23486,107.712757 234.162196,108.80972 L172.347477,141.512523 C167.82715,143.904112 162.392804,143.79757 157.969206,141.230047" id="Fill-10" fill="#FC785D"></path>
                        <polygon id="Fill-12" fill="#D7ECFA" points="164.455935 97.1177103 164.451028 98.6001869 144.695187 110.081495 144.700093 108.598318"></polygon>
                        <polygon id="Fill-14" fill="#D7ECFA" points="144.700093 108.598248 144.695187 110.081425 100.968084 84.8358645 100.972991 83.3526869"></polygon>
                        <polygon id="Fill-16" fill="#EEF8FC" points="164.455935 97.1177103 144.700093 108.598318 100.972991 83.352757 120.729533 71.8714486"></polygon>
                        <polygon id="Fill-18" fill="#D7ECFA" points="123.399603 74.7614019 123.3975 75.6305607 120.663855 77.2195794 120.666659 76.3497196"></polygon>
                        <polygon id="Fill-20" fill="#D7ECFA" points="120.666379 76.3497897 120.664276 77.2196495 117.967079 75.6628738 117.969883 74.793014"></polygon>
                        <polygon id="Fill-22" fill="#FFFFFF" points="123.399603 74.7614019 120.666659 76.3497196 117.969463 74.7929439 120.703107 73.2046262"></polygon>
                        <polygon id="Fill-24" fill="#D7ECFA" points="126.859136 76.758785 126.857033 77.6279439 124.123388 79.2169626 124.126192 78.3471028"></polygon>
                        <polygon id="Fill-26" fill="#D7ECFA" points="124.125841 78.3471729 124.123738 79.2170327 121.426542 77.6595561 121.429346 76.7903972"></polygon>
                        <polygon id="Fill-28" fill="#FFFFFF" points="126.859136 76.758785 124.126192 78.3471028 121.428995 76.7903271 124.16264 75.2020093"></polygon>
                        <polygon id="Fill-30" fill="#D7ECFA" points="130.312079 78.7521028 130.309276 79.6219626 127.576332 81.2102804 127.578435 80.3411215"></polygon>
                        <polygon id="Fill-32" fill="#D7ECFA" points="127.578505 80.3408411 127.576402 81.21 124.879206 79.6532243 124.882009 78.7833645"></polygon>
                        <polygon id="Fill-34" fill="#FFFFFF" points="130.312079 78.7521028 127.578435 80.3411215 124.881939 78.7836449 127.614883 77.1953271"></polygon>
                        <polygon id="Fill-36" fill="#D7ECFA" points="133.764393 80.7453505 133.76229 81.6152103 131.028645 83.203528 131.031449 82.3343692"></polygon>
                        <polygon id="Fill-38" fill="#D7ECFA" points="131.031168 82.3340888 131.029065 83.2032477 128.331869 81.646472 128.334673 80.7766121"></polygon>
                        <polygon id="Fill-40" fill="#FFFFFF" points="133.764393 80.7453505 131.031449 82.3343692 128.334252 80.7768925 131.067897 79.1885748"></polygon>
                        <polygon id="Fill-42" fill="#D7ECFA" points="137.223925 82.7427336 137.221822 83.6125935 134.488178 85.2009112 134.490981 84.3317523"></polygon>
                        <polygon id="Fill-44" fill="#D7ECFA" points="134.490701 84.331472 134.488598 85.2006308 131.791402 83.6438551 131.793505 82.7739953"></polygon>
                        <polygon id="Fill-46" fill="#FFFFFF" points="137.223925 82.7427336 134.490981 84.3317523 131.793785 82.7742757 134.52743 81.1859579"></polygon>
                        <polygon id="Fill-48" fill="#D7ECFA" points="140.676869 84.7364019 140.674766 85.6055607 137.941121 87.1945794 137.943224 86.3247196"></polygon>
                        <polygon id="Fill-50" fill="#D7ECFA" points="137.943294 86.3244393 137.941192 87.1942991 135.243995 85.6375234 135.246799 84.7676636"></polygon>
                        <polygon id="Fill-52" fill="#FFFFFF" points="140.676869 84.7364019 137.943224 86.3247196 135.246729 84.7679439 137.979673 83.1789252"></polygon>
                        <polygon id="Fill-54" fill="#D7ECFA" points="144.129182 86.7296495 144.127079 87.5988084 141.393435 89.1878271 141.396238 88.3186682"></polygon>
                        <polygon id="Fill-56" fill="#D7ECFA" points="141.395958 88.3183879 141.393855 89.1875467 138.696659 87.630771 138.699463 86.7609112"></polygon>
                        <polygon id="Fill-58" fill="#FFFFFF" points="144.129182 86.7296495 141.396238 88.3186682 138.699042 86.7611916 141.432687 85.1728738"></polygon>
                        <polygon id="Fill-60" fill="#D7ECFA" points="147.588715 88.7270327 147.586612 89.5961916 144.852967 91.1852103 144.855771 90.3160514"></polygon>
                        <polygon id="Fill-62" fill="#D7ECFA" points="144.855491 90.315771 144.853388 91.1849299 142.149182 89.6239486 142.151986 88.7540888"></polygon>
                        <polygon id="Fill-64" fill="#FFFFFF" points="147.588715 88.7270327 144.855771 90.3160514 142.152266 88.7543692 144.88521 87.1660514"></polygon>
                        <polygon id="Fill-66" fill="#D7ECFA" points="151.041379 90.7203505 151.039276 91.5895093 148.305631 93.178528 148.308435 92.3093692"></polygon>
                        <polygon id="Fill-68" fill="#D7ECFA" points="148.308084 92.3090888 148.305981 93.1782477 145.608785 91.621472 145.610888 90.7516121"></polygon>
                        <polygon id="Fill-70" fill="#FFFFFF" points="151.041379 90.7203505 148.308435 92.3093692 145.611238 90.7518925 148.344883 89.1635748"></polygon>
                        <polygon id="Fill-72" fill="#D7ECFA" points="154.494322 92.7135981 154.491519 93.582757 151.758575 95.1717757 151.760678 94.3026168"></polygon>
                        <polygon id="Fill-74" fill="#D7ECFA" points="151.760748 94.3023364 151.758645 95.1714953 149.061449 93.6147196 149.064252 92.7448598"></polygon>
                        <polygon id="Fill-76" fill="#FFFFFF" points="154.494322 92.7135981 151.760678 94.3026168 149.064182 92.7451402 151.797126 91.1568224"></polygon>
                        <polygon id="Fill-78" fill="#D7ECFA" points="161.406519 96.7042991 161.403715 97.5741589 158.670771 99.1624766 158.672874 98.2933178"></polygon>
                        <polygon id="Fill-80" fill="#D7ECFA" points="158.672944 98.2930374 158.670841 99.1621963 152.513832 95.6084579 152.516636 94.7385981"></polygon>
                        <polygon id="Fill-82" fill="#FFFFFF" points="161.406519 96.7042991 158.672874 98.2933178 152.516565 94.7381776 155.25021 93.1505607"></polygon>
                        <polygon id="Fill-84" fill="#D7ECFA" points="123.375 78.7835748 123.372897 79.6534346 120.639252 81.2417523 120.642056 80.3718925"></polygon>
                        <polygon id="Fill-86" fill="#D7ECFA" points="120.641706 80.3719626 120.639603 81.2418224 114.482593 77.6873832 114.485397 76.8175234"></polygon>
                        <polygon id="Fill-88" fill="#FFFFFF" points="123.375 78.7835748 120.642056 80.3718925 114.485047 76.8174533 117.218692 75.2291355"></polygon>
                        <polygon id="Fill-90" fill="#D7ECFA" points="126.827593 80.7771729 126.825491 81.6463318 124.091846 83.2346495 124.093949 82.3654907"></polygon>
                        <polygon id="Fill-92" fill="#D7ECFA" points="124.094019 82.3656308 124.091916 83.2347897 121.39472 81.678014 121.397523 80.8088551"></polygon>
                        <polygon id="Fill-94" fill="#FFFFFF" points="126.827593 80.7771729 124.093949 82.3654907 121.397453 80.808715 124.130397 79.2203972"></polygon>
                        <polygon id="Fill-96" fill="#D7ECFA" points="130.280257 82.7704907 130.278154 83.6396495 127.544509 85.2279673 127.547313 84.3588084"></polygon>
                        <polygon id="Fill-98" fill="#D7ECFA" points="127.547033 84.3588785 127.544229 85.2280374 124.847734 83.6712617 124.849836 82.8021028"></polygon>
                        <polygon id="Fill-100" fill="#FFFFFF" points="130.280257 82.7704907 127.547313 84.3588084 124.850117 82.8020327 127.583762 81.213715"></polygon>
                        <polygon id="Fill-102" fill="#D7ECFA" points="133.73979 84.7678738 133.737687 85.6370327 131.004042 87.2260514 131.006846 86.3561916"></polygon>
                        <polygon id="Fill-104" fill="#D7ECFA" points="131.006495 86.3559112 131.003692 87.225771 128.307196 85.6689953 128.309299 84.7991355"></polygon>
                        <polygon id="Fill-106" fill="#FFFFFF" points="133.73979 84.7678738 131.006846 86.3561916 128.30965 84.7994159 131.043294 83.2103972"></polygon>
                        <polygon id="Fill-108" fill="#D7ECFA" points="137.192383 86.7611215 137.19028 87.6302804 134.456636 89.2192991 134.459439 88.3501402"></polygon>
                        <polygon id="Fill-110" fill="#D7ECFA" points="134.459159 88.3498598 134.456355 89.2190187 131.75986 87.662243 131.761963 86.7923832"></polygon>
                        <polygon id="Fill-112" fill="#FFFFFF" points="137.192383 86.7611215 134.459439 88.3501402 131.762243 86.7926636 134.495187 85.2043458"></polygon>
                        <polygon id="Fill-114" fill="#D7ECFA" points="140.645047 88.7544393 140.642944 89.6235981 137.909299 91.2126168 137.911402 90.3434579"></polygon>
                        <polygon id="Fill-116" fill="#D7ECFA" points="137.911472 90.3431776 137.909369 91.2123364 135.212173 89.6555607 135.214977 88.7857009"></polygon>
                        <polygon id="Fill-118" fill="#FFFFFF" points="140.645047 88.7544393 137.911402 90.3434579 135.214907 88.7859813 137.94785 87.1976636"></polygon>
                        <polygon id="Fill-120" fill="#D7ECFA" points="144.104229 90.7518224 144.102126 91.6209813 141.368481 93.21 141.371285 92.3408411"></polygon>
                        <polygon id="Fill-122" fill="#D7ECFA" points="141.371005 92.3405607 141.368902 93.2097196 138.665397 91.6487383 138.6675 90.7788785"></polygon>
                        <polygon id="Fill-124" fill="#FFFFFF" points="144.104229 90.7518224 141.371285 92.3408411 138.66778 90.7791589 141.401425 89.1908411"></polygon>
                        <polygon id="Fill-126" fill="#D7ECFA" points="147.557243 92.7451402 147.55514 93.6142991 144.821495 95.2033178 144.824299 94.3341589"></polygon>
                        <polygon id="Fill-128" fill="#D7ECFA" points="144.823949 94.3338785 144.821145 95.2030374 142.12465 93.6462617 142.126752 92.7764019"></polygon>
                        <polygon id="Fill-130" fill="#FFFFFF" points="147.557243 92.7451402 144.824299 94.3341589 142.127103 92.7766822 144.860047 91.1883645"></polygon>
                        <polygon id="Fill-132" fill="#D7ECFA" points="151.009836 94.7383879 151.007734 95.6082477 148.274089 97.1965654 148.276192 96.3274065"></polygon>
                        <polygon id="Fill-134" fill="#D7ECFA" points="148.276262 96.3271262 148.274159 97.196285 145.576963 95.6402103 145.579766 94.7696495"></polygon>
                        <polygon id="Fill-136" fill="#FFFFFF" points="151.009836 94.7383879 148.276192 96.3274065 145.579696 94.7699299 148.313341 93.1816121"></polygon>
                        <polygon id="Fill-138" fill="#D7ECFA" points="154.469369 96.735771 154.467266 97.6049299 151.733621 99.1939486 151.735724 98.3247897"></polygon>
                        <polygon id="Fill-140" fill="#D7ECFA" points="151.735794 98.3245093 151.733692 99.1936682 149.030187 97.6333879 149.03229 96.763528"></polygon>
                        <polygon id="Fill-142" fill="#FFFFFF" points="154.469369 96.735771 151.735724 98.3247897 149.03222 96.7638084 151.765864 95.1747897"></polygon>
                        <polygon id="Fill-144" fill="#D7ECFA" points="157.922033 98.7297196 157.91993 99.5988785 155.186285 101.187196 155.188388 100.318037"></polygon>
                        <polygon id="Fill-146" fill="#D7ECFA" points="155.188458 100.317827 155.186355 101.186986 152.489159 99.6309112 152.491963 98.7603505"></polygon>
                        <polygon id="Fill-148" fill="#FFFFFF" points="157.922033 98.7297196 155.188388 100.318037 152.491893 98.7605607 155.224836 97.172243"></polygon>
                        <polygon id="Fill-150" fill="#D7ECFA" points="119.890514 80.808715 119.888411 81.6778738 117.154766 83.2661916 117.15757 82.3970327"></polygon>
                        <polygon id="Fill-152" fill="#D7ECFA" points="117.15722 82.3971028 117.155117 83.2662617 110.998107 79.7118224 111.000911 78.8426636"></polygon>
                        <polygon id="Fill-154" fill="#FFFFFF" points="119.890514 80.808715 117.15757 82.3970327 111.001262 78.8425935 113.734206 77.2542757"></polygon>
                        <polygon id="Fill-156" fill="#D7ECFA" points="123.343107 82.8019626 123.341005 83.6711215 120.60736 85.2594393 120.610164 84.3902804"></polygon>
                        <polygon id="Fill-158" fill="#D7ECFA" points="120.609883 84.3903505 120.607079 85.2595093 117.910584 83.7027336 117.912687 82.8335748"></polygon>
                        <polygon id="Fill-160" fill="#FFFFFF" points="123.343107 82.8019626 120.610164 84.3902804 117.912967 82.8335047 120.645911 81.2451869"></polygon>
                        <polygon id="Fill-162" fill="#D7ECFA" points="126.795771 84.7952804 126.793668 85.6651402 124.060023 87.2534579 124.062827 86.3842991"></polygon>
                        <polygon id="Fill-164" fill="#D7ECFA" points="124.062547 86.3840187 124.060444 87.2531776 121.363248 85.6964019 121.366051 84.8265421"></polygon>
                        <polygon id="Fill-166" fill="#FFFFFF" points="126.795771 84.7952804 124.062827 86.3842991 121.365631 84.8268224 124.099276 83.2385047"></polygon>
                        <polygon id="Fill-168" fill="#D7ECFA" points="130.255304 86.7926636 130.253201 87.6618224 127.519556 89.2508411 127.52236 88.3816822"></polygon>
                        <polygon id="Fill-170" fill="#D7ECFA" points="127.522079 88.3814019 127.519977 89.2505607 124.82278 87.693785 124.824883 86.8239252"></polygon>
                        <polygon id="Fill-172" fill="#FFFFFF" points="130.255304 86.7926636 127.52236 88.3816822 124.825164 86.8242056 127.558808 85.2358879"></polygon>
                        <polygon id="Fill-174" fill="#D7ECFA" points="133.707967 88.7859112 133.705864 89.6550701 130.97222 91.2440888 130.975023 90.3749299"></polygon>
                        <polygon id="Fill-176" fill="#D7ECFA" points="130.974673 90.3746495 130.97257 91.2438084 128.275374 89.6877336 128.278178 88.8171729"></polygon>
                        <polygon id="Fill-178" fill="#FFFFFF" points="133.707967 88.7859112 130.975023 90.3749299 128.277827 88.8174533 131.011472 87.2291355"></polygon>
                        <polygon id="Fill-180" fill="#D7ECFA" points="137.160561 90.779229 137.158458 91.6483879 134.424813 93.2374065 134.427617 92.3682477"></polygon>
                        <polygon id="Fill-182" fill="#D7ECFA" points="134.427336 92.3679673 134.425234 93.2371262 131.728037 91.6810514 131.73014 90.8104907"></polygon>
                        <polygon id="Fill-184" fill="#FFFFFF" points="137.160561 90.779229 134.427617 92.3682477 131.730421 90.810771 134.463364 89.2224533"></polygon>
                        <polygon id="Fill-186" fill="#D7ECFA" points="140.620093 92.7766121 140.617991 93.645771 137.884346 95.2347897 137.88715 94.3656308"></polygon>
                        <polygon id="Fill-188" fill="#D7ECFA" points="137.886869 94.3653505 137.884766 95.2345093 135.180561 93.674229 135.183364 92.8036682"></polygon>
                        <polygon id="Fill-190" fill="#FFFFFF" points="140.620093 92.7766121 137.88715 94.3656308 135.183645 92.8039486 137.916589 91.2156308"></polygon>
                        <polygon id="Fill-192" fill="#D7ECFA" points="144.072757 94.7698598 144.070654 95.6397196 141.337009 97.2280374 141.339813 96.3588785"></polygon>
                        <polygon id="Fill-194" fill="#D7ECFA" points="141.339463 96.3585981 141.33736 97.227757 138.640164 95.6716822 138.642266 94.8011215"></polygon>
                        <polygon id="Fill-196" fill="#FFFFFF" points="144.072757 94.7698598 141.339813 96.3588785 138.642617 94.8014019 141.376262 93.2130841"></polygon>
                        <polygon id="Fill-198" fill="#D7ECFA" points="147.52535 96.7638785 147.523248 97.6330374 144.789603 99.2213551 144.792407 98.3521963"></polygon>
                        <polygon id="Fill-200" fill="#D7ECFA" points="144.792126 98.3519159 144.790023 99.2210748 142.092827 97.665 142.09493 96.7944393"></polygon>
                        <polygon id="Fill-202" fill="#FFFFFF" points="147.52535 96.7638785 144.792407 98.3521963 142.09521 96.7947196 144.828855 95.2064019"></polygon>
                        <polygon id="Fill-204" fill="#D7ECFA" points="154.437547 100.754509 154.435444 101.623668 151.701799 103.211986 151.704603 102.342827"></polygon>
                        <polygon id="Fill-206" fill="#D7ECFA" points="151.704322 102.342547 151.70222 103.211706 145.545911 99.6579673 145.548014 98.7888084"></polygon>
                        <polygon id="Fill-208" fill="#FFFFFF" points="154.437547 100.754509 151.704603 102.342827 145.548294 98.7883879 148.281238 97.2000701"></polygon>
                        <polygon id="Fill-210" fill="#D7ECFA" points="119.852173 84.8308178 119.85007 85.6999766 117.116425 87.2889953 117.119229 86.4191355"></polygon>
                        <polygon id="Fill-212" fill="#D7ECFA" points="117.118949 86.4189252 117.116145 87.288785 107.507734 81.7408879 107.509836 80.871028"></polygon>
                        <polygon id="Fill-214" fill="#FFFFFF" points="119.852173 84.8308178 117.119229 86.4191355 107.510117 80.8712383 110.243061 79.2829206"></polygon>
                        <polygon id="Fill-216" fill="#D7ECFA" points="123.304836 86.8241355 123.302033 87.6932944 120.569089 89.2823131 120.571893 88.4124533"></polygon>
                        <polygon id="Fill-218" fill="#D7ECFA" points="120.571542 88.4121729 120.568738 89.2820327 117.872243 87.725257 117.874346 86.8553972"></polygon>
                        <polygon id="Fill-220" fill="#FFFFFF" points="123.304836 86.8241355 120.571893 88.4124533 117.874696 86.8556776 120.60764 85.2673598"></polygon>
                        <polygon id="Fill-222" fill="#D7ECFA" points="126.764299 88.8215187 126.762196 89.6906776 124.028551 91.2796963 124.031355 90.4105374"></polygon>
                        <polygon id="Fill-224" fill="#D7ECFA" points="124.031075 90.410257 124.028271 91.2794159 121.331776 89.7226402 121.333879 88.8527804"></polygon>
                        <polygon id="Fill-226" fill="#FFFFFF" points="126.764299 88.8215187 124.031355 90.4105374 121.334159 88.8530607 124.067103 87.2640421"></polygon>
                        <polygon id="Fill-228" fill="#D7ECFA" points="130.216612 90.8147664 130.214509 91.6839252 127.480864 93.2729439 127.483668 92.403785"></polygon>
                        <polygon id="Fill-230" fill="#D7ECFA" points="127.483388 92.4035748 127.481285 93.2727336 124.784089 91.7159579 124.786893 90.8460981"></polygon>
                        <polygon id="Fill-232" fill="#FFFFFF" points="130.216612 90.8147664 127.483668 92.403785 124.786472 90.8463084 127.520117 89.2579907"></polygon>
                        <polygon id="Fill-234" fill="#D7ECFA" points="133.669626 92.8080841 133.666822 93.6779439 130.933879 95.2662617 130.935981 94.3971028"></polygon>
                        <polygon id="Fill-236" fill="#D7ECFA" points="130.936051 94.3968224 130.933949 95.2659813 128.236752 93.7092056 128.239556 92.8393458"></polygon>
                        <polygon id="Fill-238" fill="#FFFFFF" points="133.669626 92.8080841 130.935981 94.3971028 128.239486 92.8396262 130.97243 91.2513084"></polygon>
                        <polygon id="Fill-240" fill="#D7ECFA" points="137.129089 94.8054673 137.126986 95.6746262 134.393341 97.2636449 134.395444 96.394486"></polygon>
                        <polygon id="Fill-242" fill="#D7ECFA" points="134.395514 96.3942056 134.393411 97.2633645 131.689907 95.7030841 131.692009 94.8325234"></polygon>
                        <polygon id="Fill-244" fill="#FFFFFF" points="137.129089 94.8054673 134.395444 96.394486 131.691939 94.8328037 134.425584 93.244486"></polygon>
                        <polygon id="Fill-246" fill="#D7ECFA" points="140.581752 96.798785 140.578949 97.6679439 137.846005 99.2569626 137.848808 98.3878037"></polygon>
                        <polygon id="Fill-248" fill="#D7ECFA" points="137.848528 98.3875234 137.845724 99.2566822 135.149229 97.7006075 135.151332 96.8300467"></polygon>
                        <polygon id="Fill-250" fill="#FFFFFF" points="140.581752 96.798785 137.848808 98.3878037 135.151612 96.8303271 137.885257 95.2420093"></polygon>
                        <polygon id="Fill-252" fill="#D7ECFA" points="144.034416 98.7927336 144.032313 99.6618925 141.298668 101.25021 141.300771 100.381051"></polygon>
                        <polygon id="Fill-254" fill="#D7ECFA" points="141.300841 100.380771 141.298738 101.24993 138.601542 99.6938551 138.604346 98.8239953"></polygon>
                        <polygon id="Fill-256" fill="#FFFFFF" points="144.034416 98.7927336 141.300771 100.381051 138.604276 98.8242757 141.337921 97.235257"></polygon>
                        <polygon id="Fill-258" fill="#D7ECFA" points="150.946542 102.782734 150.944439 103.652593 148.210794 105.240911 148.212897 104.371752"></polygon>
                        <polygon id="Fill-260" fill="#D7ECFA" points="148.212967 104.371472 148.210864 105.240631 142.054556 101.686893 142.056659 100.817734"></polygon>
                        <polygon id="Fill-262" fill="#FFFFFF" points="150.946542 102.782734 148.212897 104.371752 142.056589 100.817313 144.790234 99.2289953"></polygon>
                        <polygon id="Fill-264" fill="#D7ECFA" points="109.455561 82.8649766 109.453458 83.7341355 106.719813 85.3224533 106.722617 84.4532944"></polygon>
                        <polygon id="Fill-266" fill="#D7ECFA" points="106.722266 84.4533645 106.720164 85.3225234 104.022967 83.7657477 104.025771 82.8965888"></polygon>
                        <polygon id="Fill-268" fill="#FFFFFF" points="109.455561 82.8649766 106.722617 84.4532944 104.025421 82.8965187 106.759065 81.3082009"></polygon>
                        <polygon id="Fill-270" fill="#D7ECFA" points="112.915023 84.8623598 112.912921 85.7322196 110.179276 87.3205374 110.182079 86.4506776"></polygon>
                        <polygon id="Fill-272" fill="#D7ECFA" points="110.181799 86.4503972 110.179696 87.320257 107.4825 85.7634813 107.484603 84.8936215"></polygon>
                        <polygon id="Fill-274" fill="#FFFFFF" points="112.915023 84.8623598 110.182079 86.4506776 107.484883 84.8939019 110.218528 83.3055841"></polygon>
                        <polygon id="Fill-276" fill="#D7ECFA" points="116.367687 86.8556075 116.365584 87.7247664 113.631939 89.313785 113.634743 88.4446262"></polygon>
                        <polygon id="Fill-278" fill="#D7ECFA" points="113.634463 88.4443458 113.63236 89.3135047 110.935164 87.756729 110.937967 86.8868692"></polygon>
                        <polygon id="Fill-280" fill="#FFFFFF" points="116.367687 86.8556075 113.634743 88.4446262 110.937547 86.8871495 113.671192 85.2988318"></polygon>
                        <polygon id="Fill-282" fill="#D7ECFA" points="133.644603 96.830257 133.6425 97.7001168 130.908855 99.2884346 130.911659 98.4192757"></polygon>
                        <polygon id="Fill-284" fill="#D7ECFA" points="130.911379 98.4189953 130.909276 99.2881542 114.387547 89.7498364 114.39035 88.8806776"></polygon>
                        <polygon id="Fill-286" fill="#FFFFFF" points="133.644603 96.830257 130.911659 98.4192757 114.38993 88.880257 117.123575 87.2926402"></polygon>
                        <polygon id="Fill-288" fill="#D7ECFA" points="137.097266 98.8242056 137.095164 99.6933645 134.361519 101.281682 134.364322 100.412523"></polygon>
                        <polygon id="Fill-290" fill="#D7ECFA" points="134.364042 100.412243 134.361939 101.281402 131.664743 99.7253271 131.666846 98.8554673"></polygon>
                        <polygon id="Fill-292" fill="#FFFFFF" points="137.097266 98.8242056 134.364322 100.412523 131.667126 98.8557477 134.400771 97.266729"></polygon>
                        <polygon id="Fill-294" fill="#D7ECFA" points="140.54993 100.817523 140.547827 101.686682 137.814182 103.275 137.816986 102.405841"></polygon>
                        <polygon id="Fill-296" fill="#D7ECFA" points="137.816706 102.405561 137.814603 103.27472 135.117407 101.718645 135.119509 100.848785"></polygon>
                        <polygon id="Fill-298" fill="#FFFFFF" points="140.54993 100.817523 137.816986 102.405841 135.11979 100.849065 137.853435 99.2600467"></polygon>
                        <polygon id="Fill-300" fill="#D7ECFA" points="147.462056 104.808154 147.459953 105.677313 144.726308 107.265631 144.729112 106.396472"></polygon>
                        <polygon id="Fill-302" fill="#D7ECFA" points="144.728832 106.396192 144.726729 107.26535 138.56972 103.711612 138.572523 102.842453"></polygon>
                        <polygon id="Fill-304" fill="#FFFFFF" points="147.462056 104.808154 144.729112 106.396472 138.572103 102.842033 141.305748 101.253715"></polygon>
                        <path d="M167.783621,120.574416 C164.140864,118.471612 164.140864,115.061565 167.783621,112.958762 C171.425678,110.855958 177.331752,110.855958 180.973808,112.958762 C184.615864,115.062266 184.616565,118.471612 180.973808,120.574416 C177.331752,122.67722 171.426379,122.67722 167.783621,120.574416 Z" id="Fill-306" fill="#36BAF7"></path>
                        <polygon id="Fill-308" fill="#36BAF7" points="165.05257 116.766589 183.705841 116.766589 183.705841 101.171495 165.05257 101.171495"></polygon>
                        <path d="M180.974439,104.979322 C177.332383,107.082126 171.426308,107.082126 167.784252,104.979322 C164.140794,102.876519 164.140794,99.4671729 167.784252,97.3636682 C171.426308,95.2608645 177.331682,95.2608645 180.974439,97.3643692 C184.616495,99.4671729 184.616495,102.876519 180.974439,104.979322" id="Fill-310" fill="#FFFFFF"></path>
                        <path d="M181.472804,102.33028 C181.108318,102.835654 180.533551,103.311589 179.741495,103.718131 C176.839626,105.204813 172.143364,105.204813 169.241495,103.718131 C168.449439,103.311589 167.874673,102.835654 167.517196,102.33028 C166.556916,100.984486 167.131682,99.4150935 169.241495,98.3356542 C172.143364,96.8496729 176.839626,96.8496729 179.741495,98.3356542 C181.851308,99.4150935 182.426075,100.984486 181.472804,102.33028" id="Fill-311" fill="#EBEBEB"></path>
                        <path d="M181.472804,102.33028 C181.108318,102.835654 180.533551,103.311589 179.741495,103.718131 C176.839626,105.204813 172.143364,105.204813 169.241495,103.718131 C168.449439,103.311589 167.874673,102.835654 167.517196,102.33028 C167.874673,101.825607 168.449439,101.349673 169.241495,100.943131 C172.143364,99.4564486 176.839626,99.4564486 179.741495,100.943131 C180.533551,101.349673 181.108318,101.825607 181.472804,102.33028" id="Fill-312" fill="#544438"></path>
                        <polygon id="Fill-313" fill="#FFFFFF" points="104.743388 73.5183645 81.9938551 60.3842523 114.167453 41.808785 136.916986 54.9435981"></polygon>
                        <polygon id="Fill-314" fill="#4661AD" points="105.200607 69.069743 84.6583178 57.2099299 113.710654 40.4365654 134.252944 52.2963785"></polygon>
                        <polygon id="Fill-315" fill="#FFFFFF" points="151.326098 29.4292991 151.326098 32.8814019 159.33778 37.3631776 159.33778 33.3958879"></polygon>
                        <path d="M153.274206,87.7975234 L138.434019,79.2292991 C137.478645,78.6776636 137.478645,77.2996262 138.434019,76.7479907 L155.33215,66.9916822 L174.379346,77.9886449 L157.390794,87.7975234 C156.117196,88.5328037 154.547804,88.5328037 153.274206,87.7975234" id="Fill-316" fill="#D84537"></path>
                        <path d="M129.115234,0.100233645 L126.944439,1.56728972 L129.054953,55.264486 L197.935093,97.3913551 L199.906822,96.0686916 C200.213131,95.8626168 200.396776,95.517757 200.396776,95.1490654 L200.396776,41.8619159 C200.396776,41.2570093 200.074346,40.6983645 199.550748,40.3955607 L129.73486,0.0785046729 C129.541402,-0.0336448598 129.300981,-0.0252336449 129.115234,0.100233645" id="Fill-317" fill="#F05142"></path>
                        <path d="M197.089136,41.7391121 C197.741706,42.116215 198.143341,42.812243 198.143341,43.5650467 L198.143341,96.8388785 C198.143341,97.3211215 197.622547,97.6218224 197.205491,97.3814019 L128.465537,57.6888785 C127.435864,57.094486 126.801519,55.9954206 126.801519,54.8059346 L126.801519,1.92042056 C126.801519,1.57976636 127.17021,1.36668224 127.465304,1.53700935" id="Fill-318" fill="#FBD5CD"></path>
                        <polygon id="Fill-319" fill="#FFFFFF" points="126.801238 46.553271 126.801238 3.84042056 198.051939 44.9922897 198.143061 87.7478972"></polygon>
                        <polygon id="Fill-320" fill="#FC785D" points="138.75722 17.373785 134.50465 14.9191121 134.50465 13.8663084 138.75722 16.3209813"></polygon>
                        <polygon id="Fill-321" fill="#FC785D" points="175.794112 38.7570561 141.473551 18.9416355 141.473551 17.8895327 175.794112 37.7042523"></polygon>
                        <polygon id="Fill-322" fill="#FC785D" points="190.153668 47.0529673 178.789416 40.4866121 178.789416 39.4338084 190.153668 46.0001636"></polygon>
                        <polygon id="Fill-323" fill="#FC785D" points="138.75722 20.8260981 134.50465 18.3714252 134.50465 17.3186215 138.75722 19.7732944"></polygon>
                        <polygon id="Fill-324" fill="#FC785D" points="175.794112 42.2093692 141.473551 22.3939486 141.473551 21.3418458 175.794112 41.1565654"></polygon>
                        <polygon id="Fill-325" fill="#FC785D" points="190.153668 50.5052103 178.789416 43.9388551 178.789416 42.8860514 190.153668 49.4524065"></polygon>
                        <polygon id="Fill-326" fill="#FC785D" points="138.75722 24.2784112 134.50465 21.8237383 134.50465 20.7709346 138.75722 23.2263084"></polygon>
                        <polygon id="Fill-327" fill="#FC785D" points="168.809439 41.6292757 141.472991 25.8463318 141.472991 24.793528 168.809439 40.576472"></polygon>
                        <polygon id="Fill-328" fill="#FC785D" points="190.153668 53.9575234 171.606939 43.2444393 171.606939 42.1916355 190.153668 52.9047196"></polygon>
                        <polygon id="Fill-329" fill="#FC785D" points="138.75722 27.7306542 134.50465 25.2759813 134.50465 24.2231776 138.75722 26.6778505"></polygon>
                        <polygon id="Fill-330" fill="#FC785D" points="180.756098 51.9789953 141.473621 29.2988551 141.473621 28.2460514 180.756098 50.9261916"></polygon>
                        <polygon id="Fill-331" fill="#FC785D" points="190.153668 57.4098364 178.789416 50.8434813 178.789416 49.7906776 190.153668 56.3570327"></polygon>
                        <polygon id="Fill-332" fill="#FC785D" points="138.75722 31.1829673 134.50465 28.7282944 134.50465 27.6754907 138.75722 30.1301636"></polygon>
                        <polygon id="Fill-333" fill="#FC785D" points="175.794112 52.5663084 141.473551 32.7508879 141.473551 31.698785 175.794112 51.5135047"></polygon>
                        <polygon id="Fill-334" fill="#FC785D" points="190.153668 60.8617991 178.789416 54.2954439 178.789416 53.2426402 190.153668 59.8096963"></polygon>
                        <polygon id="Fill-335" fill="#FC785D" points="138.75722 34.6352804 134.50465 32.1806075 134.50465 31.1278037 138.75722 33.5824766"></polygon>
                        <polygon id="Fill-336" fill="#FC785D" points="165.90028 50.3170093 141.473411 36.2036916 141.473411 35.1508879 165.90028 49.2642056"></polygon>
                        <polygon id="Fill-337" fill="#FC785D" points="190.153668 64.3141121 188.208575 63.1856075 188.208575 62.1328037 190.153668 63.2620093"></polygon>
                        <polygon id="Fill-338" fill="#FC785D" points="185.364182 61.5439486 178.789416 57.7476869 178.789416 56.6955841 185.364182 60.4911449"></polygon>
                        <polygon id="Fill-339" fill="#FC785D" points="138.75722 38.0875935 134.50465 35.6329206 134.50465 34.5801168 138.75722 37.0347897"></polygon>
                        <polygon id="Fill-340" fill="#FC785D" points="170.548037 56.441986 141.473271 39.6560047 141.473271 38.6032009 170.548037 55.3891822"></polygon>
                        <polygon id="Fill-341" fill="#FC785D" points="190.153668 67.7664252 173.355771 58.0633879 173.355771 57.0105841 190.153668 66.7143224"></polygon>
                        <polygon id="Fill-342" fill="#FC785D" points="138.75722 41.5399065 134.50465 39.0852336 134.50465 38.0324299 138.75722 40.4871028"></polygon>
                        <polygon id="Fill-343" fill="#FC785D" points="157.880607 52.5806776 141.473131 43.1082477 141.473131 42.0554439 157.880607 51.5285748"></polygon>
                        <polygon id="Fill-344" fill="#FC785D" points="190.153668 71.2187383 161.078902 54.4271495 161.078902 53.3743458 190.153668 70.1666355"></polygon>
                        <polygon id="Fill-345" fill="#FC785D" points="138.75722 44.9922196 134.50465 42.5375467 134.50465 41.484743 138.75722 43.9394159"></polygon>
                        <polygon id="Fill-346" fill="#FC785D" points="175.794112 66.3755607 141.473551 46.5601402 141.473551 45.5080374 175.794112 65.322757"></polygon>
                        <polygon id="Fill-347" fill="#FC785D" points="190.153668 74.6710514 178.789416 68.1046963 178.789416 67.0518925 190.153668 73.6189486"></polygon>
                        <path d="M47.4416355,219.977734 C47.4416355,221.636145 46.2766822,223.654136 44.8404673,224.483341 C43.4035514,225.312547 42.2385981,224.64035 42.2385981,222.981238 C42.2385981,221.322126 43.4035514,219.304836 44.8404673,218.47493 C46.2766822,217.645724 47.4416355,218.318621 47.4416355,219.977734" id="Fill-348" fill="#FC755F"></path>
                        <path d="M45.3046262,218.64771 C45.8128037,220.226916 45.3214486,222.504252 44.2083645,223.733692 C43.0945794,224.963832 41.7796262,224.679953 41.2714486,223.100748 C40.763271,221.521542 41.2546262,219.244206 42.3684112,218.014766 C43.4814953,216.784626 44.7964486,217.067804 45.3046262,218.64771" id="Fill-349" fill="#FC755F"></path>
                        <path d="M92.9167991,173.596963 C92.9167991,173.596963 93.1866589,182.35514 94.3992757,185.453972 C95.6118925,188.552804 98.5761449,188.283645 100.866098,188.013785 C103.156752,187.744626 108.950678,183.58528 111.77965,180.881776 C114.609322,178.178271 120.537827,178.695561 125.253715,172.036682 C129.969603,165.377804 125.253715,162.548832 123.771238,162.414252 C122.289463,162.279673 114.503481,168.505374 108.366098,166.047897 L92.9167991,173.596963 Z" id="Fill-350" fill="#0B246E"></path>
                        <path d="M34.3028972,129.446285 C34.3028972,129.446285 84.4274299,112.948388 93.951028,119.760771 C102.862009,126.133668 101.41528,145.302126 108.366449,166.049089 C108.545888,166.584603 108.52486,167.165678 108.296355,167.684369 C107.226729,170.114509 103.302196,176.727126 92.7895794,175.007033 C92.7895794,175.007033 86.9620093,159.831799 83.001729,143.989276 C83.001729,143.989276 43.9554673,169.150724 35.0564019,162.627126 C26.1566355,156.103528 34.3028972,129.446285 34.3028972,129.446285" id="Fill-351" fill="#425CA3"></path>
                        <polygon id="Fill-352" fill="#CE5063" points="13.8378505 201.129182 46.7831776 195.326145 43.7880841 219.84764 46.7831776 220.596238 52.586215 195.326145 83.2857477 207.961192 84.9700935 206.15278 55.7684579 192.331051 77.8570093 182.222173 75.4233645 181.099977 50.9446262 189.455117 37.9850467 181.099977 34.6752336 181.847874 46.4088785 191.582453 14.5864486 198.695537"></polygon>
                        <path d="M18.0102336,197.762103 C18.0102336,199.421215 16.8452804,201.438505 15.4090654,202.268411 C13.9721495,203.097617 12.8071963,202.425421 12.8071963,200.766308 C12.8071963,199.107196 13.9721495,197.089907 15.4090654,196.26 C16.8452804,195.430794 18.0102336,196.102991 18.0102336,197.762103" id="Fill-353" fill="#FC755F"></path>
                        <path d="M19.183528,198.439766 C19.183528,200.098178 18.0185748,202.116168 16.5816589,202.946075 C15.144743,203.77528 13.9804907,203.102383 13.9804907,201.443271 C13.9804907,199.78486 15.144743,197.766869 16.5816589,196.936963 C18.0185748,196.108458 19.183528,196.780654 19.183528,198.439766" id="Fill-354" fill="#FC755F"></path>
                        <path d="M86.1152103,205.306682 C86.1152103,206.965794 84.950257,208.983084 83.5133411,209.812991 C82.0764252,210.642196 80.9121729,209.969299 80.9121729,208.310888 C80.9121729,206.651776 82.0764252,204.634486 83.5133411,203.804579 C84.950257,202.975374 86.1152103,203.64757 86.1152103,205.306682" id="Fill-355" fill="#FC755F"></path>
                        <path d="M84.6654673,204.350467 C84.6654673,206.009579 83.500514,208.026869 82.0642991,208.856776 C80.6273832,209.685981 79.4624299,209.013084 79.4624299,207.354673 C79.4624299,205.695561 80.6273832,203.678271 82.0642991,202.848364 C83.500514,202.019159 84.6654673,202.691355 84.6654673,204.350467" id="Fill-356" fill="#FC755F"></path>
                        <polygon id="Fill-357" fill="#FC755F" points="47.5233645 192.769626 53.4357477 192.769626 53.4357477 178.307243 47.5233645 178.307243"></polygon>
                        <path d="M117.309182,181.092967 C117.309182,181.092967 117.578341,189.850444 118.790958,192.949276 C120.003575,196.048808 122.967827,195.778949 125.258481,195.509089 C127.549136,195.23993 133.343061,191.080584 136.172033,188.37778 C139.001706,185.673575 144.93021,186.191565 149.646098,179.532687 C154.361285,172.873808 149.646098,170.044136 148.163621,169.909556 C146.681846,169.774977 139.284883,175.363528 133.1475,172.906051 L117.309182,181.092967 Z" id="Fill-358" fill="#0B246E"></path>
                        <path d="M58.8222196,135.531519 C58.8222196,135.531519 108.946752,119.033621 118.47035,125.846005 C127.491379,132.298808 125.896752,151.864696 133.147921,172.906051 C133.147921,172.906051 130.122687,183.189463 117.308902,181.092967 C117.308902,181.092967 111.481332,165.917033 107.521051,150.074509 C107.521051,150.074509 68.4747897,175.235958 59.5757243,168.71236 C50.6759579,162.189463 58.8222196,135.531519 58.8222196,135.531519" id="Fill-359" fill="#4661AD"></path>
                        <path d="M99.8177103,156.955935 C98.052757,166.501262 81.788972,178.163411 53.5020561,182.405467 C52.5158411,182.556869 43.1142056,184.405935 34.8347664,182.784673 C40.0342991,172.811776 53.7585981,156.263411 49.4597664,139.961075 C59.5945794,141.536075 101.364673,148.56715 99.8177103,156.955935" id="Fill-360" fill="#FC755F"></path>
                        <path d="M49.4037617,142.099416 L55.4149766,148.280958 C56.8308645,156.808528 61.9806308,165.12722 69.843014,165.753855 L110.1075,151.993107 L110.1075,137.994743 L49.4037617,142.099416 Z" id="Fill-361" fill="#4661AD"></path>
                        <path d="M62.9970561,79.569743 L42.1190187,68.9968458 C39.9706542,67.9082944 37.5972897,67.3139019 35.1888785,67.344743 C30.7807009,67.4008178 24.3790654,68.8734813 21.8725234,76.3945093 C17.8849065,88.3573598 30.7975234,136.968575 30.7975234,136.968575 C30.7975234,136.968575 43.7676168,153.012967 54.0222897,152.253154 C64.2762617,151.494042 79.0288318,142.855023 79.0288318,135.638902 C79.0288318,130.491238 75.0391121,106.264136 72.7519626,92.7998832 C71.7825701,87.090771 68.1629439,82.1856308 62.9970561,79.569743" id="Fill-362" fill="#0B246E"></path>
                        <path d="M72.8081075,48.8538785 C72.9216589,48.8538785 75.480771,49.4657944 76.8342757,49.7903271 C77.2639486,49.8940654 77.4910514,50.3608879 77.3109112,50.7646262 L76.4424533,52.7111215 C76.1459579,53.3770093 75.4849766,53.8052804 74.7567056,53.8052804 L71.7251636,53.8052804" id="Stroke-363" stroke="#0B246E" stroke-width="0.75"></path>
                        <path d="M45.6260047,67.2465421 L47.7771729,53.2628972 L74.8844159,37.557757 L74.8844159,48.1516822 C74.8844159,48.7572897 74.7729673,49.3572897 74.5542757,49.9215421 L74.0313785,51.2715421 C73.7453972,52.011729 73.6647897,52.815 73.7986682,53.597243 L74.0005374,54.7748131 C74.1568458,55.6839252 74.0489019,56.618972 73.6914252,57.4692056 L71.250771,63.2645327 C70.4727336,65.1128972 68.5647897,66.2224766 66.5734346,65.9848598 L62.7295093,65.5250467 L61.1159579,74.1311215 L45.6260047,67.2465421 Z" id="Fill-364" fill="#FF8B91"></path>
                        <path d="M47.1260748,60.8402804 L51.8833178,61.8047664 C54.3057477,62.2968224 56.8185981,61.6225234 58.6690654,59.9837383 L65.1015421,54.2879439 L65.1015421,55.8447196 L66.1333178,55.6484579 C67.0592523,55.4725234 67.8106542,54.7968224 68.0840187,53.8954206 L70.5681308,45.6979907 C70.5681308,45.6979907 77.498972,45.1127103 79.5485047,36.619486 C79.5485047,36.619486 71.9349533,29.1033645 61.0010748,29.8835047 C50.0685981,30.6650467 46.0662617,39.7428505 46.0662617,39.7428505 C46.0662617,39.7428505 43.7230374,39.4505607 42.6492056,42.3790654 C41.7814486,44.7454206 44.2599533,55.1416822 45.2426636,59.0465888 C45.4725701,59.9585047 46.2050467,60.6531308 47.1260748,60.8402804" id="Fill-365" fill="#0B246E"></path>
                        <path d="M64.7486916,57.8175 L65.6108411,53.3553505 C65.6108411,53.3553505 64.7115421,51.1803505 62.6115421,52.0432009 C60.5115421,52.9053505 61.4115421,58.3796495 62.6115421,58.5303505 C63.8115421,58.6796495 64.7486916,57.8175 64.7486916,57.8175" id="Fill-366" fill="#FF8B91"></path>
                        <polygon id="Fill-367" fill="#36E7F7" points="65.6111916 53.3552103 76.8948364 52.6844159 77.6055841 50.8956308 64.7840888 52.2834813"></polygon>
                        <path d="M57.2540187,159.35236 C58.8058879,175.295117 42.6514486,187.396752 27.9332243,181.075724 C14.2131308,175.182967 4.15401869,162.100724 1.17084112,139.499089 C-2.15929907,114.334136 2.33859813,98.4124065 5.64070093,90.6691822 C7.2535514,86.911472 11.2103271,84.7196495 15.2526168,85.2789953 C46.8507477,89.6822664 54.7453738,141.596285 54.7453738,141.596285 C54.7453738,141.596285 56.3301869,149.8575 57.2540187,159.35236" id="Fill-368" fill="#FC755F"></path>
                        <path d="M84.8756075,86.5393458 C84.8756075,86.5393458 88.6985047,79.0407477 89.8746729,78.3054673 C91.0508411,77.5708879 100.75528,77.2764953 101.637757,77.1292991 C102.519533,76.9828037 104.283785,78.8935514 104.283785,78.8935514 C104.283785,78.8935514 109.28285,78.7470561 109.871636,78.8935514 C110.45972,79.0407477 110.312523,81.8262617 108.989159,81.8304673 C107.665794,81.8346729 105.132617,82.6169159 105.132617,82.6169159 L102.078645,86.5393458 C102.078645,86.5393458 96.9323832,89.9213551 96.0499065,89.9213551 C95.1681308,89.9213551 88.9928972,91.0975234 88.9928972,91.0975234 L84.8756075,86.5393458 Z" id="Fill-369" fill="#FF8B91"></path>
                        <path d="M118.246612,97.1690888 C118.246612,97.1690888 122.069509,89.6704907 123.245678,88.9352103 C124.421846,88.1999299 134.126285,87.9055374 135.008762,87.7583411 C135.890537,87.6111449 137.65479,89.5232944 137.65479,89.5232944 L139.529089,90.6931542 C140.710164,91.4298364 140.759229,93.1317056 139.619509,93.9321729 C137.652687,95.313715 135.44965,97.1690888 135.44965,97.1690888 C135.44965,97.1690888 130.303388,100.550397 129.420911,100.550397 C128.539136,100.550397 122.363902,101.726565 122.363902,101.726565 L118.246612,97.1690888 Z" id="Fill-370" fill="#FF8B91"></path>
                        <path d="M54.0221495,101.441776 L87.938271,120.612336 C91.8305607,122.811869 96.6284579,122.643645 100.356729,120.176355 L126.133598,101.187336 C126.133598,101.187336 124.881729,94.7387383 119.890374,93.2730841 C118.853692,92.9681776 96.6831308,101.016308 96.6831308,101.016308 C95.1964486,101.673785 93.4721495,101.489439 92.1571963,100.534065 L66.4041589,81.8071963 L54.0221495,98.577757" id="Fill-371" fill="#0B246E"></path>
                        <path d="M60.8620794,89.3136449 L85.788715,83.5428505 C90.9006308,83.5428505 91.6527336,90.8465888 91.6527336,90.8465888 L74.4644159,103.028832 L60.8620794,89.3136449 Z" id="Fill-372" fill="#0B246E"></path>
                        <path d="M79.0289019,179.8725 C79.0289019,181.531612 77.8639486,183.548902 76.4270327,184.378808 C74.9901168,185.208014 73.8258645,184.535818 73.8258645,182.876706 C73.8258645,181.217593 74.9901168,179.200304 76.4270327,178.370397 C77.8639486,177.541192 79.0289019,178.214089 79.0289019,179.8725" id="Fill-373" fill="#FC755F"></path>
                        <path d="M77.8326869,179.181869 C77.8326869,180.840981 76.6677336,182.858271 75.2308178,183.688178 C73.7939019,184.517383 72.6296495,183.845187 72.6296495,182.186075 C72.6296495,180.526963 73.7939019,178.509673 75.2308178,177.679766 C76.6677336,176.850561 77.8326869,177.523458 77.8326869,179.181869" id="Fill-374" fill="#FC755F"></path>
                        <path d="M99.8177103,156.955935 C69.0438785,174.437243 59.8581308,161.697056 57.3571963,155.573692 C56.6927103,153.946121 56.4999533,152.786075 56.4999533,152.786075 C56.4999533,152.786075 50.2539252,120.397991 41.8896729,105.45757 C34.8347664,92.8554673 25.4261215,84.4743925 10.763271,84.0307009" id="Stroke-375" stroke="#FFFFFF" stroke-width="4" stroke-linecap="round"></path>
                        <polygon id="Fill-376" fill="#4661AD" points="45.8679673 64.9890421 42.1193692 68.996285 62.9967056 79.5698832 61.5394626 71.8715187"></polygon>
                    </g>
                </g>
            </g>
        </g>
    </g>
</svg>