<?xml version="1.0" encoding="UTF-8"?>
<svg width="266px" height="225px" viewBox="0 0 266 225" version="1.1" xmlns="http://www.w3.org/2000/svg" xmlns:xlink="http://www.w3.org/1999/xlink">
    <!-- Generator: sketchtool 64 (101010) - https://sketch.com -->
    <title>4974C07E-6690-401B-A5EB-272AF06D9965</title>
    <desc>Created with sketchtool.</desc>
    <g id="-Desktop---Phase1" stroke="none" stroke-width="1" fill="none" fill-rule="evenodd">
        <g id="Homepage---Template-" transform="translate(-667.000000, -1813.000000)">
            <g id="03-Impact-stories" transform="translate(131.000000, 1591.000000)">
                <g id="Vendor-Access" transform="translate(456.000000, 222.000000)">
                    <g id="Group-2" transform="translate(80.000000, 0.000000)">
                        <path d="M53.5005652,149.560843 C48.7588754,146.823181 49.353659,142.041079 54.8289844,138.879607 L123.182475,99.4156078 C128.6578,96.255172 136.940214,95.9111508 141.681904,98.6488135 L212.108848,139.141767 C216.850538,141.880466 216.255754,146.661532 210.780428,149.823004 L142.426938,189.287003 C136.951613,192.448475 128.669199,192.792496 123.928545,190.053797 L53.5005652,149.560843 Z" id="Fill-91" fill="#C2D6DF" opacity="0.299434"></path>
                        <path d="M214.488558,117.661972 L202.313109,110.632334 L247.205804,84.7146882 C249.325886,83.4898898 249.325886,81.4982972 247.205804,80.2734988 L201.344254,53.7963005 C199.224171,52.5715021 195.774633,52.5715021 193.653515,53.7963005 L148.761856,79.7139462 L136.585371,72.6853443 L181.478065,46.7656262 C190.310706,41.6664444 204.68499,41.6664444 213.519703,46.7666624 L259.381253,73.2448969 C268.21493,78.3451149 268.21493,86.6441084 259.382289,91.7443263 L214.488558,117.661972" id="Fill-92" fill="#E06C61"></path>
                        <path d="M234.136106,120.758163 C234.136106,114.247665 230.178826,106.687488 225.296212,103.867965 L143.960066,56.9090707 C141.773666,55.6469688 139.776893,55.5568187 138.233978,56.4189441 L138.228797,56.4158355 L41.1132689,112.84982 L135.027949,183.61664 L230.704184,128.085193 C230.999503,127.950486 231.285497,127.795054 231.548694,127.59403 L231.550766,127.59403 L231.54973,127.59403 C233.147564,126.383739 234.136106,124.009785 234.136106,120.758163" id="Fill-93" fill="#FC755F"></path>
                        <path d="M135.027949,183.61664 L230.704184,128.085193 C230.999503,127.950486 231.285497,127.795054 231.548694,127.59403 L231.550766,127.59403 L231.54973,127.592994 C233.147564,126.383739 234.136106,124.009785 234.136106,120.758163 C234.136106,117.650574 233.227352,114.307765 231.752827,111.352499 L122.689815,174.319778 L135.027949,183.61664" id="Fill-94" fill="#E06C61"></path>
                        <path d="M128.910175,183.365877 L47.5740286,136.405947 C42.6914143,133.58746 38.7351705,126.026247 38.7351705,119.515749 C38.7351705,113.007324 42.6914143,110.01579 47.5740286,112.833241 L128.910175,159.794208 C133.792789,162.611658 137.751105,170.173908 137.751105,176.682333 C137.751105,183.192831 133.792789,186.184364 128.910175,183.365877" id="Fill-95" fill="#D9655A"></path>
                        <path d="M116.728508,167.528467 L106.949809,161.887349 C105.976809,161.325724 105.187218,159.81804 105.187218,158.520707 C105.187218,157.223374 105.976809,156.627555 106.949809,157.18918 L116.728508,162.829262 C117.701508,163.391923 118.490062,164.89857 118.490062,166.195903 C118.490062,167.493236 117.701508,168.090092 116.728508,167.528467" id="Fill-96" fill="#FFFFFE"></path>
                        <g id="Group-3" transform="translate(157.000000, 152.361814)">
                            <polyline id="Fill-97" fill="#EAE9FC" points="40.8626488 28.4113116 52.3511189 34.9376858 64.0732336 28.0594202 64.041891 25.0676311 63.9421647 25.1260422 63.9329044 24.9151923 69.1457408 24.8788634 69.1143982 21.9333758 74.226796 21.8977593 74.1961658 18.9515594 79.3085635 18.9159428 79.2779333 15.9704552 84.390331 15.9348387 84.3597008 12.9886387 89.8247022 12.9501729 91.5221864 11.9543345 93.3970409 4.2219843 93.3656983 1.22948286 92.4617506 4.09661409 84.1887414 2.99178911 40.8626488 28.4113116"></polyline>
                            <polyline id="Fill-98" fill="#FC755F" points="52.3197764 31.9451844 64.041891 25.0676311 63.9015619 21.9234032 69.1143982 21.8870743 68.9833294 18.9422991 74.1961658 18.9059702 74.0650969 15.9604826 79.2779333 15.9241537 79.1454397 12.9786661 84.3589884 12.9430496 84.2272072 9.99756194 89.794072 9.95838375 91.4922685 8.96254538 93.3656983 1.22948286 84.1573988 7.81032469e-14 40.8320185 25.4195225 52.3197764 31.9451844"></polyline>
                            <path d="M60.1254966,27.3656101 C58.9458769,25.6894958 57.173598,24.1230805 54.8015367,22.7753508 C53.1304088,21.8258139 51.2705132,21.057209 49.2987817,20.4524402 L40.8320185,25.4195225 L52.3197764,31.9451844 L60.1254966,27.3656101" id="Fill-99" fill="#E06C61"></path>
                            <polyline id="Fill-100" fill="#EAE9FC" points="93.0515605 2.5280618 93.3656983 1.22948286 91.8206529 1.02361927 55.2146885 22.5018158 57.1422555 23.5966681 93.0515605 2.5280618"></polyline>
                            <polyline id="Fill-101" fill="#CECBC5" points="13.0974211 37.8496939 12.9706263 33.596367 14.3318903 36.4684846 13.0974211 37.8496939"></polyline>
                            <path d="M33.732218,39.4624107 C36.1755125,40.850031 36.1918961,43.128777 33.7678346,44.5505892 C31.3444854,45.9731137 27.3981731,46.0001822 24.9548787,44.6125619 C22.5115842,43.223517 22.4952006,40.9461956 24.9192621,39.5236711 C27.3433236,38.101859 31.2889236,38.0747904 33.732218,39.4624107 Z M20.1737147,47.4170081 C29.5600969,52.749516 44.7163581,52.6426664 54.0265208,47.1805143 C58.6944242,44.4416026 61.0052251,40.8770995 60.9674716,37.3304048 L60.9681839,37.3325418 L60.8378274,32.8270498 L60.0727842,33.6789974 C58.9921784,31.4579502 56.9349672,29.3658348 53.8883287,27.6362957 C44.5033712,22.3045001 29.3463977,22.4106374 20.0369472,27.8727895 C10.7267844,33.335654 10.7880449,42.0859248 20.1737147,47.4170081 L20.1737147,47.4170081 Z" id="Fill-102" fill="#EAE9FC"></path>
                            <path d="M33.6054232,35.2112208 C36.0494299,36.6002658 36.0651012,38.8775872 33.6410397,40.3001116 C31.2169782,41.7219238 27.2713782,41.7497047 24.8280838,40.3613721 C22.3847893,38.9737518 22.3684057,36.6950058 24.7924672,35.2731936 C27.2158164,33.8513814 31.1614164,33.8236006 33.6054232,35.2112208 Z M20.0476322,43.1665305 C29.4325897,48.4983261 44.5895632,48.3921889 53.8990136,42.9293244 C63.2091764,37.4671723 63.147916,28.7169015 53.7622461,23.3851059 C44.3765763,18.0533103 29.2203151,18.1594476 19.90944,23.622312 C10.5999896,29.0844641 10.66125,37.834735 20.0476322,43.1665305 L20.0476322,43.1665305 Z" id="Fill-103" fill="#F4F4F1"></path>
                            <path d="M30.9291966,45.4951397 C28.8648621,45.8178256 26.5804174,45.5357426 24.9548787,44.6125619 C23.202545,43.6167236 22.7060505,42.1649935 23.4547101,40.8977571 L19.2028079,37.5262957 C19.2028079,37.5262957 16.980336,35.0188915 14.7799464,32.5328572 C11.3564848,37.5369807 13.1586816,43.4315176 20.1737147,47.4170081 C23.2687918,49.1757527 26.7371302,50.173728 30.6706205,50.7528529 L30.9291966,45.4951397" id="Fill-104" fill="#EAE9FC"></path>
                            <path d="M33.6054232,35.2112208 C36.0494299,36.6002658 36.0651012,38.8775872 33.6410397,40.3001116 C31.2169782,41.7219238 27.2713782,41.7497047 24.8280838,40.3613721 C22.3847893,38.9737518 22.3684057,36.6950058 24.7924672,35.2731936 C27.2158164,33.8513814 31.1614164,33.8236006 33.6054232,35.2112208 Z M20.0476322,43.1665305 C22.1547065,44.3632462 24.5524118,45.2864268 27.1096791,45.9360725 C28.9161499,46.3955258 30.8016894,46.7182116 32.7214207,46.9041299 C40.1873592,47.6314196 48.1562032,46.3000735 53.8990136,42.9293244 C63.2091764,37.4671723 63.147916,28.7169015 53.7622461,23.3851059 C44.3765763,18.0533103 29.2203151,18.1594476 19.90944,23.622312 C10.5999896,29.0844641 10.66125,37.834735 20.0476322,43.1665305 L20.0476322,43.1665305 Z" id="Fill-105" fill="#FC755F"></path>
                            <path d="M15.612661,33.4823941 C16.0699773,30.757729 18.089435,28.0971737 21.6845682,25.9872501 C29.9675501,21.1270174 43.4526833,21.0329898 51.8033366,25.7764002 C55.9533755,28.1342149 58.0497649,31.2428263 58.097491,34.3699582 C58.6929995,30.8182772 56.628665,27.1611711 51.9023506,24.4763966 C43.5524096,19.7322738 30.0672764,19.8270138 21.7842945,24.6865341 C17.617872,27.1319656 15.5649348,30.316084 15.612661,33.4823941" id="Fill-106" fill="#E06C61"></path>
                            <path d="M21.5805679,36.1351138 C19.8909194,36.1351138 17.9975443,36.7220743 16.0222512,37.8803241 C8.99582074,42.0032944 3.32566805,51.9844728 3.38407917,60.1313995 C3.40972308,63.92741 4.67268548,66.7261575 6.94003423,68.0126268 C9.20667064,69.2990961 12.2568709,68.9529033 15.530743,67.0324597 C22.5578857,62.9102017 28.2273261,52.928311 28.1703396,44.7820967 C28.1546683,42.5468028 27.6980643,40.6000029 26.8482538,39.1525468 C26.2748275,38.1745167 25.5218939,37.4165968 24.6129599,36.8994447 C23.7139985,36.3887035 22.6918039,36.1351138 21.5805679,36.1351138 Z M9.96601521,72.1669396 C8.27992835,72.1669396 6.69499245,71.7651851 5.26961864,70.9552651 C1.90599288,69.0462187 0.0339876976,65.21103 0.000508152846,60.154194 C-0.065738606,50.9316479 6.35378603,39.6305207 14.3098081,34.9619051 C18.6685599,32.4039254 22.9211744,32.0463354 26.2848001,33.9575187 C27.7172973,34.7717128 28.8890813,35.9434968 29.7666728,37.4393914 C30.9334706,39.4275065 31.5346777,41.8900339 31.5539106,44.7593021 C31.6194451,53.9818482 25.1992081,65.2836877 17.2431861,69.951591 C14.7322202,71.4239787 12.2561585,72.1669396 9.96601521,72.1669396 L9.96601521,72.1669396 Z" id="Fill-107" fill="#E4563F"></path>
                            <path d="M25.9991555,43.6209976 L32.6815302,45.2586459 L33.6410397,40.3001116 C31.2169782,41.7219238 27.2713782,41.7497047 24.8280838,40.3613721 L25.9991555,43.6209976" id="Fill-108" fill="#FC755F"></path>
                            <path d="M20.0476322,43.1665305 C22.1547065,44.3632462 24.5524118,45.2864268 27.1096791,45.9360725 C28.9161499,46.3955258 30.8016894,46.7182116 32.7214207,46.9041299 C40.1873592,47.6314196 48.1562032,46.3000735 53.8990136,42.9293244 L26.6865547,42.318857 L20.0476322,43.1665305" id="Fill-109" fill="#FC755F"></path>
                            <path d="M30.0295228,46.5507476 C30.0295228,46.5507476 27.2094054,46.1319634 24.1919724,45.0791386 L24.1919724,49.2541091 C25.6301682,49.7563022 28.0000926,50.4828796 30.0295228,50.7514283 C36.2602798,51.5741703 31.5544079,47.0969488 31.5544079,47.0969488 C31.5544079,47.0969488 32.8152218,47.1667131 35.3368497,47.3062417 L30.0295228,46.5507476 Z" id="Fill-110" fill="#EAE9FC"></path>
                            <path d="M25.7626617,45.5827564 C24.5189322,45.2159061 23.1640792,44.7479048 21.9132264,44.1623689 C18.2732163,42.4577615 22.8777222,48.7718611 22.8777222,48.7718611 C22.8777222,48.7718611 24.11789,49.2655063 25.7626617,49.7698365 L25.7626617,45.5827564" id="Fill-111" fill="#EAE9FC"></path>
                        </g>
                        <path d="M257.303655,31.9192793 C254.499675,31.9192793 252.217944,34.1999741 252.217944,37.0039541 C252.217944,39.806898 254.499675,42.0875928 257.303655,42.0875928 C260.106599,42.0875928 262.387294,39.806898 262.387294,37.0039541 C262.387294,34.1999741 260.106599,31.9192793 257.303655,31.9192793 Z M257.303655,44.3485996 C253.254152,44.3485996 249.957973,41.0534567 249.957973,37.0039541 C249.957973,32.9544515 253.254152,29.6582724 257.303655,29.6582724 C261.353158,29.6582724 264.6483,32.9544515 264.6483,37.0039541 C264.6483,41.0534567 261.353158,44.3485996 257.303655,44.3485996 L257.303655,44.3485996 Z" id="Fill-150" fill="#FC755F"></path>
                        <path d="M3.09144198,166.515862 L6.08193956,172.599441 L12.1655194,169.60998 L9.17502178,163.5264 L3.09144198,166.515862 Z M5.05194836,175.62517 L0.0657133039,165.48587 L10.205013,160.500672 L15.191248,170.639971 L5.05194836,175.62517 L5.05194836,175.62517 Z" id="Fill-151" fill="#FC755F"></path>
                        <path d="M160.681303,6.77026481 L163.671801,12.8548808 L169.75538,9.86438324 L166.765919,3.77976723 L160.681303,6.77026481 Z M162.641809,15.8806095 L157.656611,5.7392374 L167.79591,0.754038554 L172.781109,10.8943744 L162.641809,15.8806095 L162.641809,15.8806095 Z" id="Fill-152" fill="#FC755F"></path>
                        <g id="Group-22" transform="translate(22.548223, 20.000000)">
                            <path d="M103.582802,8.35327645 C104.270794,12.7132904 101.663363,16.8003144 97.7592372,17.4827891 C93.8551114,18.1643945 90.132688,15.1841098 89.4455222,10.8240959 C88.7575305,6.46408198 91.3657872,2.37705798 95.2699131,1.69545261 C99.173213,1.01297785 102.895636,3.99413193 103.582802,8.35327645" id="Fill-83" fill="#132529"></path>
                            <path d="M90.9307109,17.4396509 C90.9307109,17.4396509 96.508375,21.8395475 103.692916,16.6395787 C99.9568818,17.7250333 95.8159439,15.981697 95.8159439,15.981697 L90.9307109,17.4396509" id="Fill-84" fill="#132529"></path>
                            <path d="M95.6065026,10.9387443 C96.2547257,14.8670881 93.9725885,18.5220076 90.5079783,19.1002326 C87.0451489,19.679354 83.7123203,16.9630415 83.0640972,13.0338012 C82.4167644,9.10545742 84.6989017,5.45053784 88.1626215,4.87231289 C91.6263413,4.29319147 94.9582795,7.00950403 95.6065026,10.9387443" id="Fill-85" fill="#4661AD"></path>
                            <path d="M83.9027118,30.3652243 C90.4625747,28.6051863 98.4283634,17.4347196 91.3565647,6.3926788 C88.6821851,6.3926788 81.3590571,8.91292915 81.3590571,8.91292915 L83.9027118,30.3652243" id="Fill-86" fill="#132529"></path>
                            <path d="M66.4525047,6.3926788 C61.3745314,10.8240885 58.9649172,22.8378184 70.3581194,30.3652243 C72.7449775,29.1770806 78.1685058,23.751391 78.1685058,23.751391 L66.4525047,6.3926788" id="Fill-87" fill="#132529"></path>
                            <path d="M68.5968521,56.2279635 C68.5530378,57.4663149 68.4995845,58.5311446 68.3970592,59.6619972 C68.3032968,60.7784602 68.1955138,61.8856123 68.0684526,62.9902251 C67.8327321,65.20199 67.5120121,67.3976724 67.1369624,69.5848903 C66.3877393,73.9584796 65.4150636,78.2939789 64.2057913,82.5761521 L63.2506413,85.7757201 L62.2008527,88.9507411 C61.7478137,90.3414528 60.8014266,92.0639716 59.4116397,93.253229 C58.0306156,94.4856552 56.3551599,95.2254495 54.8199098,95.5614888 C51.7143581,96.215792 49.075866,95.78749 46.6555686,95.1966703 C45.4471725,94.8817922 44.2887246,94.5025841 43.174091,94.0438101 C42.0436842,93.5824967 41.0052873,93.1220298 39.8818907,92.4939664 L41.6107997,88.5309036 C42.5536817,88.7103503 43.6341403,88.9270406 44.6462487,89.0616256 C45.6750065,89.1919784 46.69062,89.3079416 47.6790687,89.3511103 C49.6340591,89.4552233 51.5688949,89.2977842 52.7790436,88.7789125 C53.3819272,88.5224392 53.7438326,88.2338009 53.9436254,87.9375446 C54.053161,87.7911093 54.1232637,87.6277451 54.2030056,87.4389876 C54.2415621,87.3433391 54.2792423,87.2409191 54.3099123,87.1241094 L54.3572316,86.9438163 L54.4212004,86.6864966 L55.2186191,83.6528321 L55.948564,80.6013922 C56.879178,76.5215198 57.6327825,72.3984786 58.2479341,68.2618943 C58.5607676,66.1931789 58.8227766,64.1185384 59.0637548,62.0481301 C59.184682,61.0129259 59.2872073,59.9760289 59.375712,58.9467499 C59.4598353,57.9318605 59.560608,56.8484089 59.6123088,55.9359395 L68.5968521,56.2279635" id="Fill-88" fill="#F8A17A"></path>
                            <path d="M62.2706042,47.5634913 C59.0966359,49.504627 55.834647,63.3465653 55.834647,63.3465653 L69.5405778,70.3194668 C69.5405778,70.3194668 75.38305,55.3603281 72.6587708,51.3593542 C69.8211978,47.1934187 66.9017047,44.7312138 62.2706042,47.5634913" id="Fill-89" fill="#4661AD"></path>
                            <path d="M60.6204739,67.1231274 L59.3994811,66.2803892 C58.8623742,63.2371678 58.9513508,60.4298072 59.3631111,58.8715365 C59.4904061,58.3856811 59.6443292,57.9404609 59.8209834,57.5341092 C59.9885452,60.1700954 60.2424857,63.3431726 60.6204739,67.1231274" id="Fill-90" fill="#3E58A3"></path>
                            <path d="M43.072442,88.9776137 L35.0960638,83.1048244 L36.3433825,91.0280769 C36.3433825,91.0280769 39.2572071,93.081202 41.041117,92.6286982 L43.072442,88.9776137" id="Fill-91" fill="#F8A17A"></path>
                            <path d="M60.6412994,53.7491399 C61.1383483,61.377119 62.7696885,75.0298209 67.6424677,97.4883517 L102.203939,95.4191329 C100.795209,81.1693086 100.267572,72.361754 105.288192,42.641974 C105.288192,42.641974 97.9539579,41.4753419 90.4982235,41.5564539 C84.6661823,41.620308 79.890264,41.7169521 74.8050707,42.496145 C72.5432855,42.8438911 70.1846395,43.306402 68.0528517,43.7671872 C63.4808509,44.7560632 60.3328741,49.0127172 60.6412994,53.7491399" id="Fill-92" fill="#4661AD"></path>
                            <path d="M76.5732302,50.6471147 C76.5732302,50.6471147 80.2105799,54.4288313 84.5934334,55.7943583 C88.9770919,57.1590502 89.7942477,48.3344882 89.1324723,43.2406965 C85.0788964,42.1917044 76.5732302,50.6471147 76.5732302,50.6471147" id="Fill-94" fill="#FFFFFF"></path>
                            <path d="M76.1454286,49.6713193 C76.1454286,49.6713193 74.0287265,52.8685525 68.995782,54.2182753 C63.9637617,55.5679981 69.5771818,45.0764831 73.4926185,43.2496107 C78.1465902,42.2119339 76.1454286,49.6713193 76.1454286,49.6713193" id="Fill-96" fill="#FFFFFF"></path>
                            <path d="M101.012563,92.9420188 L102.062989,96.2454999 C102.196071,96.4974135 101.929907,96.7816236 101.53652,96.8074608 L66.4966408,99.0848328 C66.1894644,99.1042108 65.9266485,98.9547236 65.8956798,98.7434116 L65.4093868,95.4039427 C65.3750701,95.1714072 65.63119,94.9582496 65.9668242,94.9361034 L100.443407,92.6956418 C100.697016,92.6790321 100.927189,92.7786902 101.012563,92.9420188" id="Fill-97" fill="#FFFFFE"></path>
                            <path d="M98.0439837,97.4871915 L98.6950663,97.4280252 C98.8243383,97.4171022 98.919374,97.3042312 98.9057975,97.1795269 L98.4359319,92.90135 C98.4217651,92.7757355 98.3048889,92.6838002 98.1750266,92.6947232 L97.523944,92.7538895 C97.3940816,92.7657227 97.299046,92.8776835 97.3132128,93.0032981 L97.7830784,97.2805647 C97.7966549,97.4061792 97.9141213,97.499935 98.0439837,97.4871915" id="Fill-98" fill="#132529"></path>
                            <path d="M69.3284321,99.0856407 L69.9795148,99.0264745 C70.1093772,99.013731 70.2044128,98.9017702 70.1908363,98.7770659 L69.7203804,94.4997993 C69.7068038,94.3741847 69.5893374,94.2804289 69.4600653,94.2931724 L68.8089827,94.3514284 C68.6791203,94.3632617 68.5840847,94.4761327 68.5982515,94.600837 L69.0681171,98.8790139 C69.0816936,99.0046285 69.19916,99.0965637 69.3284321,99.0856407" id="Fill-99" fill="#132529"></path>
                            <path d="M83.6859096,99.0856409 L84.3375797,99.025574 C84.4674415,99.0146527 84.5618865,98.9027098 84.54831,98.7771153 L84.0784464,94.4996225 C84.0642797,94.3740281 83.947404,94.2811974 83.8175422,94.2930287 L83.1664624,94.3521855 C83.0366006,94.3640169 82.9415654,94.4759598 82.9557321,94.6015543 L83.4255957,98.8790471 C83.4391722,99.0046415 83.5566381,99.0965621 83.6859096,99.0856409" id="Fill-100" fill="#132529"></path>
                            <path d="M102.098228,68.7212971 C102.098228,68.7204708 102.098228,68.7204708 102.09764,68.7196444 C102.13055,68.2155919 102.165811,67.7032761 102.203423,67.1802183 C102.165811,67.7041024 102.131138,68.2172445 102.098228,68.7212971 M103.053795,57.4982771 C103.255369,55.5093352 103.482213,53.3972723 103.737853,51.1414304 C103.4828,53.3956196 103.255369,55.5093352 103.053795,57.4982771" id="Fill-101" fill="#ABB5BA"></path>
                            <path d="M101.215132,68.7212971 C100.250947,66.9404545 96.1992056,59.0286994 97.6052435,55.0545076 C98.6475843,52.1032974 101.137749,49.2305768 103.692916,47.945091 C103.583033,48.7003357 103.477019,49.4416267 103.374874,50.1689639 C103.038261,52.5498162 102.739565,54.7789218 102.474143,56.8780834 C101.994373,60.6761096 101.626032,64.0450591 101.35442,67.0965616 C101.304895,67.6486054 101.258466,68.1893118 101.215132,68.7212971" id="Fill-102" fill="#3E58A3"></path>
                            <path d="M88.3234413,27.1688849 C87.5967229,32.3328851 87.0144565,39.8297903 90.9307109,43.0250799 C90.9307109,43.0250799 83.5814921,47.184969 77.0766934,55.9359395 C70.757364,47.8875891 74.4613987,43.9604752 74.4613987,43.9604752 C80.286738,42.2666281 79.9933756,39.9672222 78.7218413,36.0590051 L88.3234413,27.1688849" id="Fill-103" fill="#F8A17A"></path>
                            <path d="M78.9702007,38.3560728 C78.8691998,37.6161232 78.6998128,36.8650542 78.4883421,36.1170178 C78.7282193,36.9216624 78.9112835,37.6636337 78.9986072,38.3510185 C78.9891384,38.3530402 78.9796695,38.3550619 78.9702007,38.3560728 M78.1685058,35.0768429 C78.1685058,35.0768429 78.1685058,35.0768429 78.1685058,35.075832 L79.8087188,33.5615637 L78.1685058,35.0768429" id="Fill-104" fill="#BEBFBB"></path>
                            <path d="M78.8372471,38.3560728 C78.7668979,37.7756031 78.6194188,37.1490372 78.4261704,36.4695462 C78.3464978,36.1758968 78.2600446,35.8831011 78.1685058,35.591159 L79.4898843,34.3115647 L83.5701383,30.3652243 C83.7837286,30.880818 84.6855546,32.3772347 84.5321425,33.5023216 C84.2100618,35.8702966 80.9655225,37.9070624 78.8372471,38.3560728" id="Fill-105" fill="#F9AFAA"></path>
                            <path d="M86.6126192,14.9472436 C87.9300519,23.5409497 88.6626079,27.1481736 85.5071105,32.4589302 C80.7605148,40.4460423 70.3979346,40.2633649 66.6558918,32.2544014 C63.2884704,25.046946 61.6998751,12.2062079 68.8977801,6.97236818 C75.989723,1.81544525 85.2951865,6.35441149 86.6126192,14.9472436" id="Fill-106" fill="#F8A17A"></path>
                            <path d="M84.6032149,3.55111619 C75.916691,-2.77835277 54.4748756,-0.0944883691 57.7714114,7.24882605 C61.7324663,16.0722842 68.5331458,16.3071996 68.5331458,16.3071996 C68.5331458,16.3071996 65.8229503,14.9824886 65.8794127,13.2162074 C72.250978,11.2052961 77.1232492,15.2748082 79.8742713,12.6200874 C78.6677131,17.6319106 86.582005,22.3743758 86.582005,22.3743758 C86.582005,22.3743758 89.9211047,19.6057299 91.7939193,15.2748082 C93.6667338,10.9447696 92.1796009,3.79574615 84.6032149,3.55111619" id="Fill-107" fill="#132529"></path>
                            <path d="M90.8914129,21.0167817 C90.6178368,22.7696358 89.5208324,24.2383593 88.2798405,25.0856008 C86.4134032,26.3603258 84.6972527,24.9482567 84.5613646,22.8769359 C84.4389752,21.0124897 85.2633034,18.101653 87.4519127,17.6484175 C89.6081248,17.2011907 91.2045856,19.0132745 90.8914129,21.0167817" id="Fill-113" fill="#F8A17A"></path>
                            <polyline id="Fill-116" fill="#F8A17A" points="23.2348204 196.574873 15.9527563 193.258961 23.0273495 174.200497 30.310237 177.515564 23.2348204 196.574873"></polyline>
                            <path d="M15.8348588,191.896702 L25.0478837,195.028636 C25.3836403,195.142808 25.5761178,195.468889 25.5122463,195.813133 L24.0889488,203.473873 C23.941354,204.26875 23.04888,204.765223 22.2798332,204.488443 C19.0862608,203.341538 17.6025443,202.626236 13.551023,201.249257 C11.0583103,200.40162 5.74748567,199.52198 2.30533249,198.350856 C-1.06086544,197.20741 -0.164938916,193.707879 1.37229148,193.88692 C8.26868161,194.686121 11.5114523,193.022849 14.2933128,191.936489 C14.79479,191.741014 15.3446023,191.730634 15.8348588,191.896702" id="Fill-117" fill="#132529"></path>
                            <polyline id="Fill-118" fill="#BEBFBB" points="27.1267311 186.985855 27.1196857 186.984314 28.7099289 183.789515 28.7149613 183.791057 27.1267311 186.985855"></polyline>
                            <polyline id="Fill-119" fill="#F89E76" points="27.3244489 186.985855 19.1433076 184.781761 20.8814481 180.593176 28.7149613 183.638539 27.3244489 186.985855"></polyline>
                            <path d="M83.4249691,96.9679569 C83.4249691,96.9679569 37.1010035,100.343321 35.2716332,116.285265 C32.1576309,143.410416 19.1433076,180.891504 19.1433076,180.891504 L29.6027915,185.387685 C29.6027915,185.387685 48.9367576,149.295997 54.3137146,125.737317 C56.7981284,124.311762 62.0215066,124.695698 68.1383574,125.078773 C84.1080132,126.080794 106.164822,127.081954 101.450545,95.890182 L83.4249691,96.9679569" id="Fill-120" fill="#0B246E"></path>
                            <polyline id="Fill-121" fill="#3769A4" points="31.0390355 186.985855 17.5480319 182.630394 18.520761 177.396837 33.5007882 182.069218 31.0390355 186.985855"></polyline>
                            <path d="M13.8372359,192.876053 C13.1970401,191.841031 12.2429154,190.565436 11.7829888,190.626045 C11.7247269,190.634437 11.6507,190.664276 11.58764,190.83305 C11.4718016,191.145421 11.4628909,191.413035 11.5595372,191.652676 C11.7836743,192.223337 12.6274441,192.660657 13.8372359,192.876053 Z M11.3175788,191.96225 L11.2743965,191.866207 C11.1236009,191.495091 11.1318261,191.081082 11.2970158,190.633505 C11.4224503,190.29689 11.6130011,190.203644 11.7514588,190.185928 C12.6247023,190.069371 14.1696716,192.718469 14.3430865,193.020584 L14.3574807,193.263954 C14.3259507,193.341347 14.2642616,193.385173 14.1991453,193.377713 C13.3169912,193.263954 11.7960121,192.929203 11.3175788,191.96225 L11.3175788,191.96225 Z" id="Fill-122" fill="#3769A4"></path>
                            <path d="M13.8756891,189.387476 C13.7881497,189.213402 13.6702248,189.107402 13.5161265,189.064613 C13.2998102,189.004319 13.2238463,189.107402 13.1826087,189.20465 C12.9279487,189.794945 13.3287489,191.648492 13.8055129,192.648201 C13.9914437,191.744767 14.2149947,190.18102 13.9031808,189.44777 L13.8756891,189.387476 Z M13.5797916,193.018716 C13.0762592,192.013172 12.507615,189.847459 12.8845408,188.972227 C12.964122,188.786483 13.1623517,188.492794 13.5870262,188.611437 C13.8561555,188.688263 14.0608964,188.893456 14.2019723,189.218264 C14.7250382,190.449424 14.0623433,193.113047 14.0341282,193.225854 L13.9053512,193.378534 L13.7432949,193.305598 C13.6904818,193.225854 13.6354984,193.129579 13.5797916,193.018716 L13.5797916,193.018716 Z" id="Fill-123" fill="#3769A4"></path>
                            <polyline id="Fill-124" fill="#F8A17A" points="46.2629933 171.651412 38.9813012 175.798667 27.1196857 159.169715 34.4013777 155.022461 46.2629933 171.651412"></polyline>
                            <path d="M36.9995315,176.709452 L44.5762762,171.13923 C44.8519001,170.936676 45.2149577,170.964297 45.450612,171.20619 L50.6974598,176.597294 C51.2420462,177.156409 51.1379586,178.141556 50.4934481,178.59772 C47.8188131,180.493521 46.433199,181.273603 43.101563,183.722659 C41.0514536,185.228419 37.4142165,188.954734 34.5830337,191.034675 C31.8151362,193.070254 29.5551862,190.413622 30.5485983,189.292045 C35.0018822,184.265034 35.4898449,180.765545 36.1759904,177.954068 C36.3000628,177.446847 36.5965043,177.004912 36.9995315,176.709452" id="Fill-125" fill="#132529"></path>
                            <path d="M41.1461467,164.51479 L40.2049341,163.122784 C40.2065293,163.119588 40.2097199,163.113195 40.2113152,163.109999 L41.154123,164.508397 L41.1461467,164.51479" id="Fill-126" fill="#B5B7B3"></path>
                            <path d="M39.8785305,164.611479 L38.2866151,161.418556 L38.2908154,161.41514 L39.8818907,164.602369 C39.8810507,164.604647 39.8793706,164.609202 39.8785305,164.611479" id="Fill-127" fill="#09181B"></path>
                            <polyline id="Fill-128" fill="#F89E76" points="33.0956625 169.405988 30.310237 165.62362 37.6562372 161.41514 39.3534659 163.721742 39.8818907 164.438237 33.0956625 169.405988"></polyline>
                            <path d="M10.2276134,111.954739 C5.36522578,138.781341 29.1300815,167.807818 29.1300815,167.807818 L38.8088406,161.717115 C38.8088406,161.717115 31.4896945,141.094691 28.7040048,122.625719 C31.4283394,121.299261 37.6362774,122.309364 44.9647972,123.320326 C62.7057801,125.767783 87.0126055,128.21438 84.3479216,97.4883517 L62.2132354,98.468366 C62.2132354,98.468366 13.084884,96.1885432 10.2276134,111.954739 Z" id="Fill-129" fill="#0B246E"></path>
                            <path d="M33.5007882,120.670602 C33.1650036,120.661013 32.8375837,120.656219 32.5173337,120.656219 C32.3106051,120.656219 32.1062664,120.657817 31.9055126,120.662611 C31.9055126,120.662611 31.9055126,120.662611 31.9055126,120.661013 C32.1110462,120.656219 32.3189698,120.653022 32.5316732,120.653022 C32.8471434,120.653022 33.1697835,120.659415 33.5007882,120.670602" id="Fill-130" fill="#B1B3AF"></path>
                            <path d="M33.7809713,121.460897 C33.5463167,121.452537 33.3169952,121.445848 33.092118,121.440832 C32.8459085,121.43498 32.6059209,121.431636 32.3712663,121.431636 C32.2130523,121.431636 32.0583936,121.433308 31.9055126,121.435816 C32.2610498,119.713578 32.5810333,118.016422 32.8565746,116.361903 C33.5809816,112.001966 37.9594221,108.609325 43.8764499,105.985839 C44.6159672,105.658112 45.4194813,105.4792 46.2354391,105.4792 C46.2443276,105.4792 46.253216,105.4792 46.2629933,105.4792 C39.8633238,108.167897 35.0911258,111.715205 34.518711,116.361903 C34.3142771,118.025618 34.065401,119.730299 33.7809713,121.460897" id="Fill-131" fill="#0A2164"></path>
                            <polyline id="Fill-132" fill="#3769A4" points="41.4771664 160.079205 30.558896 169.405988 27.1196857 165.475153 39.1186179 155.022461 41.4771664 160.079205"></polyline>
                            <path d="M35.9471824,177.953436 C34.5605186,178.091615 32.7202641,178.470527 32.4028466,179.105285 C32.3616111,179.18409 32.3270883,179.301758 32.419149,179.492833 C32.5888859,179.850155 32.806571,180.040151 33.0856299,180.074695 C33.746357,180.166455 34.7925882,179.369768 35.9471824,177.953436 Z M33.1517985,180.592865 L33.0367227,180.584229 C32.6032704,180.531333 32.2609197,180.247419 32.0173426,179.735726 C31.8341802,179.350337 31.9099384,179.041594 32.004876,178.852677 C32.6099831,177.647932 36.0814375,177.420153 36.4755723,177.397483 C36.5733867,177.389926 36.6510629,177.4493 36.6913395,177.541059 L36.6596936,177.820655 C35.8551217,178.881824 34.3505052,180.619853 33.1517985,180.592865 L33.1517985,180.592865 Z" id="Fill-133" fill="#3769A4"></path>
                            <path d="M34.3435932,174.713839 C34.1936485,174.709513 34.0666119,174.785217 33.9562359,174.947439 C33.8014318,175.173469 33.8201749,175.331366 33.853496,175.444921 C34.0582817,176.133826 35.3626623,176.828138 36.2095725,176.883294 C35.7840348,176.077589 34.9940481,174.805765 34.3935748,174.718165 L34.3435932,174.713839 Z M36.3012054,177.395917 C35.4362463,177.369961 33.8576611,176.679975 33.5543007,175.661218 C33.4897411,175.444921 33.4265699,175.014491 33.7306246,174.572164 C33.9236091,174.290979 34.1575507,174.170934 34.4248133,174.206623 C35.431387,174.353705 36.6226148,176.86599 36.6732906,176.973057 L36.6913395,177.228287 L36.5594436,177.380776 C36.4837771,177.393754 36.3970035,177.399161 36.3012054,177.395917 L36.3012054,177.395917 Z" id="Fill-134" fill="#3769A4"></path>
                            <path d="M89.4569242,86.0173332 L81.3590571,81.5066547 L83.3137725,90.6392616 C83.3137725,90.6392616 88.5118239,92.2326179 90.9307109,89.4651612 L89.4569242,86.0173332" id="Fill-136" fill="#F8A17A"></path>
                            <path d="M109.166115,52.7396001 C109.524982,53.4510444 109.776621,53.9933819 110.054202,54.6066077 C110.319676,55.2061682 110.566992,55.8023124 110.808254,56.4010189 C111.289048,57.5967236 111.742171,58.7941366 112.160704,60.0009443 C112.9848,62.4179761 113.673132,64.8683168 114.290555,67.3348849 C114.905384,69.801453 115.366289,72.3021841 115.753692,74.81231 C115.92491,76.0712163 116.103047,77.3284145 116.213733,78.5950075 L116.384087,80.4919077 L116.426459,81.0034985 C116.440295,81.2682617 116.456725,81.5261923 116.455121,81.796934 C116.446348,82.3426878 116.393599,82.9089395 116.269941,83.48544 C116.027814,84.6392951 115.47957,85.7948583 114.759243,86.692491 C114.040646,87.5986644 113.205308,88.2639887 112.402831,88.7576439 C110.780582,89.7415381 109.258642,90.1754081 107.814529,90.5042269 C104.927168,91.0943926 102.268962,91.1464912 99.6557229,91.0662082 C94.4352973,90.8672087 89.5062887,90.0327776 84.5496084,88.8080343 L85.2932834,84.5299735 C90.0381028,84.8041315 94.929063,84.8869768 99.536389,84.5598661 C101.827946,84.3753859 104.105666,84.0738975 105.989931,83.4811696 C106.916066,83.1993249 107.74708,82.8201157 108.183773,82.4656746 C108.40601,82.2940056 108.50632,82.1453966 108.52275,82.0779246 L108.500267,81.9916631 L108.114594,79.6497899 C107.928675,78.5078918 107.682224,77.3736805 107.472093,76.2369069 C106.992163,73.9701923 106.432677,71.7231214 105.828225,69.4888616 C105.204749,67.2588722 104.490475,65.0562132 103.709616,62.8868632 C103.335185,61.7979177 102.929622,60.7217835 102.505901,59.6618766 L101.854753,58.0920871 C101.648945,57.5907451 101.3999,57.0244935 101.224358,56.6435761 L109.166115,52.7396001" id="Fill-137" fill="#F8A17A"></path>
                            <path d="M104.753455,43.2728672 C108.331227,44.1155129 113.26457,55.707586 113.26457,55.707586 L102.204432,65.5249577 C102.204432,65.5249577 94.6384215,56.4355173 95.8473965,51.9076668 C97.1063862,47.1917183 100.671224,42.3112894 104.753455,43.2728672" id="Fill-138" fill="#4661AD"></path>
                            <polyline id="Fill-139" fill="#E77E75" points="73.382679 82.8171442 75.550714 89.4218825 82.9543327 89.4975032 80.8494531 81.5066547 73.382679 82.8171442"></polyline>
                            <path d="M80.5733769,102.282861 L45.0287002,102.282861 C42.4075011,102.282861 39.8708295,100.079056 39.3932489,97.3855174 L35.1744793,73.6186405 C34.6968987,70.9259699 36.4508452,68.7212971 39.0728895,68.7212971 L74.6175663,68.7212971 C77.2396106,68.7212971 79.7754369,70.9259699 80.2530175,73.6186405 L84.4709419,97.3855174 C84.9493677,100.079056 83.1954212,102.282861 80.5733769,102.282861" id="Fill-140" fill="#FFFFFE"></path>
                            <path d="M80.5216891,102.282861 L45.1580141,102.282861 C42.5027415,102.282861 39.9330953,100.079056 39.4493066,97.3855174 L35.1756963,73.6186405 C35.1217517,73.3190689 35.0960638,73.0247073 35.0960638,72.7398973 C35.0986326,70.4622853 36.7640648,68.7212971 39.1247828,68.7212971 L74.4884578,68.7212971 C77.1445866,68.7212971 79.7133765,70.9259699 80.1980216,73.6186405 L84.4699192,97.3855174 C84.9545643,100.079056 83.1778179,102.282861 80.5216891,102.282861" id="Fill-141" fill="#36BAF7"></path>
                            <path d="M35.0960638,83.4158912 L36.5929941,91.0956729 L39.8818907,88.2934858 L38.9996192,82.574719 C38.8398079,81.543466 37.4374405,81.1400818 36.6554056,81.9004051 L35.0960638,83.4158912" id="Fill-142" fill="#F8A17A"></path>
                        </g>
                    </g>
                </g>
            </g>
        </g>
    </g>
</svg>