<?xml version="1.0" encoding="UTF-8"?>
<svg width="260px" height="225px" viewBox="0 0 260 225" version="1.1" xmlns="http://www.w3.org/2000/svg" xmlns:xlink="http://www.w3.org/1999/xlink">
    <!-- Generator: sketchtool 64 (101010) - https://sketch.com -->
    <title>3D9E4674-128F-4ABC-8D42-B0CF7D289009</title>
    <desc>Created with sketchtool.</desc>
    <g id="-Desktop---Phase1" stroke="none" stroke-width="1" fill="none" fill-rule="evenodd">
        <g id="Homepage---Template-" transform="translate(-1126.000000, -1813.000000)">
            <g id="03-Impact-stories" transform="translate(131.000000, 1591.000000)">
                <g id="Virtual-Labs" transform="translate(912.000000, 222.000000)">
                    <g id="Group-5" transform="translate(83.000000, 0.000000)">
                        <g id="Group" transform="translate(171.625000, 112.000000) scale(-1, 1) translate(-171.625000, -112.000000) translate(95.625000, 0.000000)">
                            <path d="M126.145833,195.125367 C126.145833,195.125367 102.557292,182.199326 96.1114583,177.682659 C91.4520833,174.418076 92.9072917,171.624326 95.7666667,162.324326 C98.6260417,153.024326 104.867708,135.999326 104.867708,135.999326 L100.7125,135.332659 C101.435417,132.836826 102.29375,130.343076 103.514583,127.836826 C84.46875,129.737867 65.4666667,143.984742 64.1229167,145.685784 C62.69375,147.497242 52.1364583,186.662867 50.7072917,191.770159 C49.278125,196.879534 50.7302083,199.906617 59.5208333,205.174326 C68.3135417,210.439951 85.5802083,218.490992 85.5802083,218.490992 L121.7375,198.055576 C124.408333,199.611826 126.145833,200.617034 126.145833,200.617034 L126.145833,195.125367" id="Fill-4" fill="#FC755F"></path>
                            <path d="M85.5802083,218.490992 C85.5802083,218.490992 61.5260417,204.907659 55.23125,200.952451 C50.4145833,197.926409 52.340625,194.557659 55.2010417,185.257659 C58.059375,175.958701 64.3020833,158.933701 64.3020833,158.933701 L58.55,158.010784 C58.55,158.010784 51.8552083,178.540992 49.4697917,186.396201 C47.084375,194.252451 45.459375,200.358701 52.6197917,204.875367 C62.3552083,211.013909 85.5802083,223.982659 85.5802083,223.982659 L85.5802083,218.490992" id="Fill-5" fill="#E06C61"></path>
                            <polyline id="Fill-6" fill="#E06C61" points="85.5802083 218.490992 85.5802083 223.982659 126.145833 200.617034 126.145833 195.125367 85.5802083 218.490992"></polyline>
                            <path d="M147.911458,5.00557574 L141.384375,1.2097424 C141.071875,0.988909068 140.739583,0.797242402 140.392708,0.632659068 L140.307292,0.583700735 L140.303125,0.588909068 C138.505208,-0.227757598 136.335417,-0.251715932 134.382292,0.876409068 L5.103125,75.5128674 C1.94583333,77.3357841 0,80.7055757 0,84.3524507 L0,194.797242 C0,197.558701 1.50416667,199.798284 3.603125,200.997242 L3.59270833,201.039951 L10.7770833,205.186826 L15.0552083,198.540992 L14.9979167,198.505576 L139.027083,126.899326 C142.185417,125.076409 144.13125,121.706617 144.13125,118.059742 L144.13125,6.50453407 C144.13125,6.32432574 144.109375,6.15140907 144.094792,5.9753674 L147.911458,5.00557574" id="Fill-7" fill="#FC755F"></path>
                            <path d="M7.17083333,88.5576591 L7.17083333,199.002451 C7.17083333,204.498284 13.1208333,207.934742 17.88125,205.185784 L146.196875,131.104534 C149.35625,129.281617 151.302083,125.911826 151.302083,122.264951 L151.302083,10.7097424 C151.302083,5.7066174 145.886458,2.57953407 141.553125,5.0816174 L12.2739583,79.7180757 C9.115625,81.5409924 7.17083333,84.9107841 7.17083333,88.5576591" id="Fill-8" fill="#E06C61"></path>
                            <polyline id="Fill-9" fill="#FFFFFF" points="144.575 10.6649507 13.896875 86.1920341 13.896875 199.689951 144.575 124.159742 144.575 10.6649507"></polyline>
                        </g>
                        <g id="Group-39" transform="translate(0.000000, 13.125000)">
                            <path d="M41.7937849,154.651502 C42.9204765,156.960728 44.4533903,159.565912 46.6799474,160.212545 C48.2230806,160.661458 52.5573941,157.820003 53.4260453,156.679691 C54.2934189,155.539379 51.6031553,100.549461 49.6614646,97.2018922 C47.0555113,92.7115236 26.4940286,98.9129825 27.2030012,106.70491 C28.1074202,116.664301 31.0212338,127.260377 34.4817865,137.135209 C36.5576071,143.063093 39.0013271,148.922582 41.7937849,154.651502" id="Fill-145" fill="#0B246E"></path>
                            <path d="M17.0877721,206.004704 C19.1605867,206.32696 21.3040252,206.14546 23.3015074,205.479958 C23.1626136,202.916728 23.0225426,200.353498 22.8812946,197.791503 C22.8648157,197.468012 22.8412743,197.128471 22.6776621,196.854368 C22.4351863,196.451857 21.9514119,196.296285 21.5064807,196.21356 C19.8115046,195.899947 17.2360825,195.802406 17.1795833,198.026095 C17.1113135,200.683162 17.1195529,203.346402 17.0877721,206.004704" id="Fill-146" fill="#F8A17A"></path>
                            <path d="M53.7029809,206.004704 C55.799628,206.32696 57.9044514,206.14546 59.8072024,205.479958 C59.3575038,202.916728 58.9078051,200.353498 58.4592744,197.791503 C58.4032081,197.468012 58.3401335,197.128471 58.1427333,196.854368 C57.8530573,196.451857 57.3566367,196.296285 56.9022658,196.21356 C55.1840664,195.899947 52.6155277,195.802406 52.8292806,198.026095 C53.0839152,200.683162 53.4133049,203.346402 53.7029809,206.004704" id="Fill-147" fill="#F8A17A"></path>
                            <path d="M52.443215,148.583314 C49.5620178,143.989358 42.6173045,140.83961 39.6984937,148.809636 C35.2475581,160.964738 49.3651736,183.700694 51.465263,198.380347 L59.0243308,198.380347 C59.2337129,196.958646 54.0417905,151.131622 52.443215,148.583314" id="Fill-148" fill="#0B246E"></path>
                            <path d="M15.8940202,111.172338 C17.7246646,112.587786 20.1451557,112.804511 22.4147557,112.804511 C41.1015451,112.804511 51.9158153,106.83661 49.3307159,98.4075933 C46.6757826,89.7496068 29.9530702,91.1479127 21.217604,93.9371777 C19.3345842,94.5396002 16.5911116,95.1212073 15.3041736,96.8476619 C13.4398592,99.350409 11.4471005,107.731673 15.8940202,111.172338" id="Fill-149" fill="#0B246E"></path>
                            <path d="M41.3126887,50.4473863 C41.9409491,58.9991807 43.6789647,67.760797 48.667713,74.8574951 C49.7427079,76.3870844 51.3056344,77.9737849 53.2110145,77.7801031 C54.3246319,77.6671221 55.2940583,76.9284 55.895283,76.0171026 C56.4952202,75.1058051 56.7784523,74.0343477 56.983152,72.9728227 C58.5988627,64.6171931 55.9545042,56.1014037 53.3217325,47.9891179 C52.2364383,44.6481076 50.7945291,38.7333648 47.2657138,36.9318762 C43.5927076,35.0558945 41.7426866,40.8514486 41.4066702,43.2153592 C41.0655042,45.6090671 41.1375997,48.0437461 41.3126887,50.4473863" id="Fill-150" fill="#F8A17A"></path>
                            <path d="M40.9540083,38.1770129 C41.1232781,36.7508129 41.5131117,35.069174 42.869835,34.446855 C44.3022168,33.7894757 45.8371863,34.7486234 46.9502637,35.724049 C53.6966922,41.6342018 56.2536925,49.9747798 57.4770517,58.9276595 L41.2989597,59.9030852 C40.2192234,52.7745894 40.096118,45.4532624 40.9540083,38.1770129" id="Fill-151" fill="#4661AD"></path>
                            <path d="M17.5705703,154.675619 C18.2080934,156.974915 19.1832025,159.568898 21.238838,160.21275 C22.6619702,160.659732 27.4998668,157.830496 28.584158,156.695087 C29.6684493,155.559678 38.3917228,109.623277 37.1643653,106.29134 C35.519104,101.819041 31.3915185,98.9229433 27.1484761,98.2568036 C20.9815698,97.2873103 13.8847332,99.1767698 12.9937068,106.935193 C11.856707,116.85176 12.5632532,127.402274 13.9512464,137.234644 C14.7845443,143.137039 15.9930772,148.971333 17.5705703,154.675619" id="Fill-152" fill="#0B246E"></path>
                            <path d="M68.7046149,51.024061 C69.7526507,50.2665504 71.0360877,49.4724877 72.246901,49.9186753 C73.268642,50.29554 73.8158244,51.4815923 73.7870253,52.5768947 C73.7594784,53.672197 60.6584041,75.1875149 55.1252255,77.4234947 C52.3404803,78.549047 50.1580113,76.992432 49.0323432,74.5358794 C47.4671761,71.1176285 64.8893637,53.7793325 68.7046149,51.024061" id="Fill-153" fill="#F8A17A"></path>
                            <path d="M30.9687535,148.756394 C29.1144256,144.187127 21.7830591,140.574827 17.6759312,148.981929 C11.0633771,162.519019 15.097582,182.748646 16.3190424,198.380347 L24.1686831,198.380347 C24.7390452,196.963588 31.998791,151.295844 30.9687535,148.756394" id="Fill-154" fill="#0B246E"></path>
                            <path d="M50.7817613,40.5843801 C52.6813285,43.4238666 51.9917085,47.4705749 51.5186838,50.7552244 C50.5054153,57.7797467 48.1178859,64.5867175 46.7174841,71.5584239 C45.3170823,78.5313877 44.9573346,85.9268792 47.8925768,92.5049809 C48.3519086,93.5348921 48.8946421,94.5635457 48.9904918,95.6701658 C49.0863415,96.7767858 48.6095825,98.0116732 47.5029539,98.5109097 C46.855657,98.8039125 46.0975729,98.8051701 45.3718535,98.80014 C35.5740201,98.7360063 25.7774315,98.6718727 15.9808429,98.607739 C15.3285668,98.6039664 14.6339675,98.5876186 14.1011925,98.25186 C12.9248549,97.5099216 13.3319051,95.8990349 13.7538928,94.6679201 C16.5795925,86.4236007 14.1659221,77.5454899 11.6016308,69.2320067 C9.05725636,60.9826572 5.93280434,50.7929501 7.34067495,42.1676013 C10.7987338,37.9045991 17.8667173,28.0066372 31.8831834,28.0066372 C41.7158712,28.0066372 49.0763831,38.0353814 50.7817613,40.5843801" id="Fill-155" fill="#5B79D3"></path>
                            <path d="M2.86297352,59.8826561 C4.84526409,52.4175959 9.07456886,45.5485015 14.8771599,40.3780955 C15.9222537,39.4475958 17.336204,38.5146182 18.6322205,39.0597844 C19.3373137,39.3571478 19.8090487,40.0497567 20.0173147,40.779536 C20.2255807,41.5093154 20.2067615,42.2799822 20.1753961,43.0370198 C19.8190856,51.8687126 18.1943601,60.5975672 16.5733985,69.2904904 C16.0753166,71.9618049 15.5659432,74.6665728 14.3991519,77.1247769 C13.2298514,79.5829809 11.3090369,81.8082503 8.73707762,82.7709643 C7.3921311,83.2752431 5.18902841,83.5713674 3.94946949,82.6148485 C2.95079652,81.8454207 2.78518743,79.8853004 2.53300996,78.7701876 C1.63721536,74.8127765 1.35367253,70.7227908 1.69116377,66.6823657 C1.88186514,64.3877115 2.27205019,62.1091645 2.86297352,59.8826561" id="Fill-156" fill="#F8A17A"></path>
                            <polyline id="Fill-157" fill="#47B48C" points="0.789144385 62.1327247 0.764289444 62.3412186 0.789144385 62.1327247"></polyline>
                            <path d="M20.080997,38.149724 C20.0081649,36.7217326 19.7306494,35.0379816 18.4422742,34.4148809 C17.0823227,33.7566759 14.5545457,34.9966087 13.4030447,35.9732596 C6.42246227,41.8908358 2.54101234,49.9623094 0.776716915,58.9264344 L18.3732093,59.9030852 C19.8800808,52.7656358 20.4627378,45.4351129 20.080997,38.149724" id="Fill-158" fill="#4661AD"></path>
                            <path d="M27.2754821,56.0230673 C28.7037243,55.8910997 29.9675646,57.1133417 30.2873778,58.4564512 C30.607191,59.7983274 14.0912134,81.093212 10.0967589,84.038433 C8.88172552,84.9350727 7.41366717,85.877346 5.93661808,85.4839099 C4.61754902,85.1336407 3.83792398,83.8386315 3.36783705,82.6040561 C2.57793688,80.530808 2.04106165,77.9247562 2.49830467,75.7232406 C2.81426474,74.2049964 4.25021333,73.7326264 5.40616479,72.8631202 C9.65878178,69.6687642 26.3622804,56.1069345 27.2754821,56.0230673" id="Fill-159" fill="#F8A17A"></path>
                            <path d="M30.8119248,40.2469676 C31.204897,39.8706064 31.7686749,39.4942452 32.2297305,39.7721543 C32.5247583,39.9516113 32.6430083,40.3441735 32.6191195,40.6993488 C32.5940361,41.0532779 32.4554805,41.3860211 32.3503694,41.7249954 C31.809286,43.4672238 32.1485083,45.3527685 32.2572027,47.1809867 C32.4984806,51.2736034 31.5166471,55.437255 29.4813135,58.9441439 C27.7410077,61.9425713 24.7322017,57.1408503 24.8588128,55.0384617 C25.0654517,51.608839 25.7821185,47.9025534 27.3611743,44.8679854 C28.2582022,43.1444504 29.426369,41.5717092 30.8119248,40.2469676" id="Fill-160" fill="#F8A17A"></path>
                            <path d="M44.9213448,15.0677568 C44.4278798,15.8645611 43.8015082,15.6501345 43.831774,14.7302569 C43.9330989,11.7879176 44.0410032,11.3273445 42.661933,8.68951636 C41.9039708,7.23674426 41.6578962,7.11493979 42.351379,6.62264671 C44.6515839,4.99097429 49.007235,8.47382094 44.9213448,15.0677568" id="Fill-161" fill="#1B2644"></path>
                            <path d="M36.8789876,18.5981334 C35.880007,14.3485799 32.5422976,13.3523567 30.6026427,14.3722995 C29.3587759,22.3271041 28.0915865,25.8625729 24.8549413,30.2020112 C28.8767774,32.6863271 35.7465505,32.2244191 37.2314165,30.2020112 C37.2910185,29.5640788 37.3959697,20.7953174 36.8789876,18.5981334" id="Fill-162" fill="#F8A17A"></path>
                            <path d="M32.2693543,7.76309808 C35.2480223,4.17387676 41.2926313,4.8178434 43.4769879,9.25173224 C45.4766796,13.3113078 43.2834693,21.8885001 41.5544506,23.6738761 C38.5277191,26.7952057 32.1112509,23.2195287 31.2170181,20.8788392 C29.9066571,17.4509174 29.7649965,10.7809991 32.2693543,7.76309808" id="Fill-163" fill="#F8A17A"></path>
                            <path d="M34.1616958,7.76679001 C34.3329956,8.42841909 32.8628677,17.2140059 32.6352501,17.1143255 C31.8233359,16.7567218 30.7884973,14.2908763 29.2561852,14.3843268 C28.7657515,14.4142309 28.0899385,14.7518985 28.0723392,13.7089916 C27.9514907,7.10765295 27.7062739,7.44407451 28.8150295,6.8385157 C31.2566386,5.50404349 33.8566413,6.58682253 34.1616958,7.76679001" id="Fill-164" fill="#1B2644"></path>
                            <path d="M26.9555767,4.17981717 C32.3937101,0.501709101 41.3100852,-0.890760807 43.891406,0.57199914 C47.7344543,2.74856655 44.9090905,8.9631755 43.4662177,9.30614242 C42.808308,9.46247716 42.2032323,8.96196361 41.6434429,8.59354685 C38.984129,6.84720295 36.6015649,8.18271369 34.6026766,8.53779958 C31.0602793,9.16677424 22.3225336,7.31499528 26.9555767,4.17981717" id="Fill-165" fill="#1B2644"></path>
                            <path d="M27.2037327,14.2591376 C27.0972591,15.2685158 27.4508566,16.3109498 28.1633095,17.0972024 C30.2020817,19.3473486 32.2487407,16.305047 31.7768392,14.4114297 C31.2129235,12.1542001 27.4942347,11.5131564 27.2037327,14.2591376" id="Fill-166" fill="#F8A17A"></path>
                            <path d="M72.5459837,208.238462 C71.4762376,207.98141 70.3556722,208.177076 69.256705,208.164288 C66.1186137,208.127201 63.0707267,206.233207 61.6312702,203.426106 C61.433075,203.041169 61.2399617,202.614029 60.8638989,202.401738 C60.3645994,202.117831 59.7141124,202.328843 59.2707141,202.697155 C58.8273158,203.06291 58.5135066,203.564223 58.1069523,203.973459 C57.3802364,204.707525 56.3422524,205.114203 55.3157027,205.097578 C54.4543157,205.086068 53.4912901,204.423618 52.6629356,204.860989 C51.9336788,205.247205 51.7380245,206.265179 51.5525341,206.990293 C51.233643,208.23974 50.9452436,209.49814 50.6403278,210.751424 C50.5742627,211.028937 50.5081977,211.319239 50.4865995,211.605704 L56.4667597,211.605704 C56.7449953,211.211814 56.9711411,210.063397 57.0905665,209.590218 C57.1096237,210.077464 57.3014665,211.230997 57.6089232,211.605704 L74.0413414,211.605704 C74.3233884,211.300056 74.5203132,210.926628 74.5584277,210.512277 C74.6562548,209.409899 73.6157298,208.495513 72.5459837,208.238462 Z" id="Fill-167" fill="#0B2D4E"></path>
                            <path d="M26.4056763,209.807368 C26.4468838,208.77864 26.0093573,207.925346 25.560923,207.685468 C25.1124886,207.445591 24.4119614,205.719907 23.4823691,203.194631 C23.0581744,202.039402 20.6899562,201.717178 19.507059,203.705415 C19.1240719,204.351055 18.7677483,204.769945 18.3362818,204.75443 C17.9751103,204.74369 17.5703074,204.125498 17.2236797,204.533648 C16.9182596,204.894061 16.8358446,205.844022 16.7594896,206.520691 C16.6249593,207.686662 16.5037608,208.860986 16.3765024,210.030537 C16.3486267,210.289509 16.3207511,210.560415 16.3110552,210.827741 L26.1887311,210.827741 C26.3075056,210.542514 26.3899205,210.194036 26.4056763,209.807368" id="Fill-168" fill="#0B2D4E"></path>
                            <path d="M71.3056209,42.7987138 C72.60049,41.642921 74.4071953,40.9075334 76.0725727,41.3742217 C77.6259064,41.8100546 78.787087,43.258974 79.1143057,44.8518853 C79.4427975,46.4447967 79.0149942,48.1328456 78.1746661,49.5213397 C77.3330648,50.9085482 74.1245395,53.6585381 70.6728284,52.7045911 C68.5541831,52.1183381 68.2205983,50.6565623 68.3886639,48.7139561 C68.5771011,46.5309347 69.6835331,44.2437763 71.3056209,42.7987138" id="Fill-169" fill="#EC977D"></path>
                            <path d="M71.9467944,47.4556909 L66.7976547,47.895663 C66.8274391,49.1975292 67.1503028,50.5885179 67.3766648,51.6489635 C67.660213,52.9666236 72.8105441,53.3468046 72.989251,52.2942559 C73.1477044,51.3703145 72.4197719,48.9200083 71.9467944,47.4556909" id="Fill-170" fill="#F8A17A"></path>
                            <path d="M69.6784013,50.5675394 L76.4581012,50.5675394 C76.8585844,50.5675394 77.2746203,50.2480295 77.3860816,49.8534156 L81.5269994,35.7224203 C81.6397568,35.3278065 81.4051696,35.0082965 81.0033904,35.0082965 L74.2249865,35.0082965 C73.8232074,35.0082965 73.4084675,35.3278065 73.2957102,35.7224203 L69.1560884,49.8534156 C69.043331,50.2480295 69.2779182,50.5675394 69.6784013,50.5675394" id="Fill-171" fill="#407192"></path>
                            <path d="M68.9016841,50.5675394 L75.6800845,50.5675394 C76.0805674,50.5675394 76.4978992,50.2480295 76.6106565,49.8534156 L80.7502762,35.7224203 C80.8630335,35.3278065 80.6284464,35.0082965 80.2279635,35.0082965 L73.448267,35.0082965 C73.0477841,35.0082965 72.6304524,35.3278065 72.5189911,35.7224203 L68.3793714,49.8534156 C68.2666141,50.2480295 68.5012012,50.5675394 68.9016841,50.5675394" id="Fill-172" fill="#10406F"></path>
                            <path d="M69.6091023,49.7895773 L75.5406208,49.7895773 C75.8916801,49.7895773 76.2553222,49.5023167 76.3534678,49.1464186 L79.9773061,36.4281463 C80.0754517,36.0735193 79.8703525,35.7862587 79.5192932,35.7862587 L73.5877746,35.7862587 C73.2367153,35.7862587 72.8730732,36.0735193 72.7749276,36.4281463 L69.1523476,49.1464186 C69.054202,49.5023167 69.2593012,49.7895773 69.6091023,49.7895773" id="Fill-173" fill="#FFFFFF"></path>
                            <path d="M68.259639,48.1626154 C69.5697727,46.5877463 71.3840943,44.0001075 72.2051282,43.0343859 C72.4213883,42.7793363 72.6967427,42.5725728 72.8715111,42.2878088 C73.0462794,42.0030447 73.0827418,41.591994 72.8325339,41.3691351 C72.5106585,41.084371 72.0064707,41.297325 71.6355595,41.5177077 C69.8350685,42.5923825 67.9214182,43.7958203 67.1393614,45.721073 C66.8665216,46.3921257 66.7822808,47.1869889 66.7998834,48.0165191 C66.7998834,48.0165191 68.3313065,48.3842362 68.259639,48.1626154" id="Fill-174" fill="#F8A17A"></path>
                            <path d="M74.919237,49.2648596 C74.7826262,49.5903384 74.6198812,49.9134327 74.5747402,50.2651406 C74.5307872,50.6156562 74.6305725,51.0114765 74.9216128,51.2117712 C75.3029351,51.4740617 75.823244,51.3047651 76.2366401,51.0949326 C78.2240299,50.0839216 79.7968358,48.276501 80.5238427,46.1626772 C80.8683394,45.1600118 80.9621851,43.8890946 80.1662788,43.1916401 C79.4416477,42.5549893 78.266795,42.7278626 77.5017747,43.3168242 C75.4169754,44.9203736 75.8327473,47.1045389 74.919237,49.2648596" id="Fill-175" fill="#F8A17A"></path>
                        </g>
                        <g id="Group-30" transform="translate(135.000000, 64.000000)">
                            <path d="M34.421121,3.44522994 L27.426147,7.34476731 C27.0864653,7.15409003 26.7474332,7.02884123 26.4233392,6.9690209 C22.5991603,6.23186003 8.83393479,3.7056976 2.24553961,3.91631499 C1.95911588,3.92192315 1.69737266,3.99171352 1.47784609,4.11696233 L8.47282007,0.217424953 C8.69234664,0.0921761499 8.95408986,0.0223857719 9.24116308,0.0117925895 C15.8289088,-0.193216646 29.5941343,2.33294579 33.4183132,3.0644985 C33.7424071,3.12992698 34.0814393,3.25517578 34.421121,3.44522994" id="Fill-409" fill="#FFFFFF"></path>
                            <path d="M61.0376789,56.7139199 C60.0770878,59.5859186 58.4410303,69.183965 49.9470405,73.9203638 L42.9520665,77.8199011 C51.4460563,73.0884874 53.0814643,63.4848329 54.0427049,60.6128342 C55.1715132,57.2248852 54.4973458,41.2565975 54.2200149,35.6278788 C54.1576641,34.3598126 53.5257134,32.896084 52.5384933,31.7738298 C45.9715311,24.2807111 32.2426769,11.5751235 28.4288898,8.08186587 C28.1002494,7.78089486 27.7657637,7.53039726 27.426082,7.344705 L34.421056,3.44516763 C34.7607377,3.63085988 35.1004193,3.87637246 35.4238638,4.17672034 C39.2376509,7.67558617 52.9723505,20.3811737 59.5334672,27.8742925 C60.5206873,28.9971698 61.1526381,30.4552902 61.2208342,31.7239796 C61.4975156,37.3570601 62.1664872,53.3209859 61.0376789,56.7139199" id="Fill-411" fill="#DCE8F1"></path>
                            <path d="M27.4241985,7.34377031 C27.7632307,7.53133195 28.1022628,7.77933704 28.4289548,8.07968492 C32.2407934,11.5760582 45.974194,24.2803996 52.5398572,31.7741414 C53.5257783,32.898265 54.1596775,34.3576316 54.2226778,35.626321 C54.5,41.256909 55.1709286,57.2227043 54.0414709,60.6156383 C52.7035279,64.6217306 50.0471264,81.7353283 29.2706898,80.4404675 C28.614708,80.3987179 27.9119632,80.1712761 27.2098678,79.782444 C26.508422,79.3936119 25.8076256,78.8446358 25.1548913,78.1604408 C4.43885689,56.4718346 1.8889713,36.4743987 0.578956208,31.0014622 C-0.527119994,26.3709953 0.236027121,11.1990656 0.545832375,5.89375058 C0.615976961,4.69921348 1.25637105,3.94522815 2.24553961,3.91469486 C8.83393479,3.70781624 22.5978613,6.2346018 26.4213907,6.96740077 C26.7467837,7.02784422 27.0851663,7.15558554 27.4241985,7.34377031" id="Fill-413" fill="#C5D4DD"></path>
                            <path d="M31.4632277,78.0043471 C30.8078954,78.0043471 30.1272331,77.9819145 29.440076,77.9395418 C29.3277147,77.9320643 29.0114146,77.8865759 28.5165056,77.6123994 C28.0410812,77.3488161 27.5442237,76.9531296 27.08049,76.4670894 C8.75651595,57.2840824 5.10445107,39.8258947 3.54503301,32.3714099 C3.38460975,31.6074546 3.24886698,30.9606473 3.1241655,30.4403351 C2.30840994,27.0243454 2.59028726,15.8603774 3.13195934,6.40876618 C8.40579302,6.42496752 18.3409942,7.97406466 25.9094651,9.42470752 C25.9218054,9.42720003 25.9887025,9.44277824 26.1166515,9.51256862 C26.2283632,9.57550458 26.4050237,9.68953708 26.6206533,9.88831503 C30.6039565,13.5423398 44.0912016,26.0254706 50.5406066,33.3864861 C51.1472274,34.0775354 51.5771877,35.0253137 51.613559,35.7462732 C52.2377159,48.4057493 52.2143343,57.8691999 51.5538062,59.8538638 C51.4128675,60.2750986 51.2699804,60.7848176 51.1043612,61.3749202 C49.5930052,66.7730813 46.4468906,78.0043471 31.4632277,78.0043471" id="Fill-415" fill="#F05B30"></path>
                            <path d="M19.228583,54.1778498 C18.2348681,54.1778498 17.2710295,53.6843321 16.7378007,52.8032286 L10.7170571,42.8580997 C9.91753874,41.5401832 10.3851693,39.850259 11.7594836,39.0850574 C13.1337979,38.321102 14.8945569,38.7666388 15.6927763,40.0851784 L20.3080303,47.7079078 L44.0013126,35.3275933 C45.3964105,34.5979099 47.1435303,35.0926739 47.9047289,36.4317768 C48.6639791,37.7708796 48.148936,39.447095 46.7531886,40.1767783 L20.6022478,53.8413604 C20.1651432,54.0700486 19.6929662,54.1778498 19.228583,54.1778498" id="Fill-417" fill="#CD4A24"></path>
                            <path d="M19.228583,50.5054427 C18.2348681,50.5054427 17.2710295,50.011925 16.7378007,49.1308215 L10.7170571,39.1856926 C9.91753874,37.8677761 10.3851693,36.1778519 11.7594836,35.4120272 C13.1337979,34.6486949 14.8945569,35.0942317 15.6927763,36.4127713 L20.3080303,44.0355008 L44.0013126,31.6551862 C45.3964105,30.9255029 47.1435303,31.4202668 47.9047289,32.7593697 C48.6639791,34.0984726 48.148936,35.7746879 46.7531886,36.5043712 L20.6022478,50.1689534 C20.1651432,50.3976415 19.6929662,50.5054427 19.228583,50.5054427" id="Fill-419" fill="#FFFFFF"></path>
                        </g>
                        <g id="Group-11" transform="translate(221.000000, 96.000000)">
                            <path d="M0.891249531,1.48424946 C1.29943228,1.25570867 1.87880809,1.28844086 2.50814059,1.64732589 L34.2915643,19.2543189 C35.5508385,19.9399412 36.5725139,21.6548739 36.5725139,23.0436538 L36.3513641,88.0965333 C36.3513641,88.7991062 36.0960976,89.2719694 35.6873056,89.5010947 L38.0876638,88.1777792 C38.4958466,87.9498229 38.7511131,87.4594247 38.7511131,86.7732178 L38.9728721,21.7039722 C38.9728721,20.3157769 37.951806,18.6008442 36.6913133,17.9146373 L4.90849883,0.30822882 C4.2785571,-0.0506562071 3.69979052,-0.0839728953 3.29099854,0.145152399 L0.891249531,1.48424946 Z" id="Fill-421" fill="#CFDEE8"></path>
                            <path d="M2.51307534,1.64264986 C1.24100731,0.93832338 0.227251956,1.51698165 0.22298736,2.9069305 L2.45704641e-14,67.9709156 C-0.00364544836,69.3608644 1.0034084,71.0471565 2.27547642,71.7520674 L34.0564632,89.3555534 C35.3169559,90.0540348 36.3422866,89.4934962 36.3465512,88.1035473 L36.5689328,23.0389777 C36.573184,21.6496134 35.5545548,19.9446173 34.2940621,19.2467203 L2.51307534,1.64264986 Z" id="Fill-423" fill="#EEEEEE"></path>
                            <polygon id="Fill-425" fill="#616173" points="31.7051478 24.3258202 33.3226481 27.0045988 32.7688599 27.3132166 31.1513596 24.6233324 29.522284 25.5164534 29.1299412 24.8618097 30.7584076 23.9686887 28.9794619 21.0198695 29.5332501 20.7112518 31.312805 23.670592 32.9412714 22.7780555 33.3336142 23.4332837"></polygon>
                            <path d="M33.3335706,47.8706653 C33.3206986,52.2421655 31.7574196,55.3178219 29.187696,56.8047983 C27.2003943,57.999523 24.6044739,58.2023457 21.6905365,57.2496053 C20.6968856,56.9444946 19.663635,56.4996876 18.6169813,55.9151843 C17.6367335,55.3686737 16.6564857,54.7333186 15.7164469,53.9956754 C12.8153032,51.7470912 10.2321766,48.7222866 8.23208115,45.3666532 C5.6093547,40.9828784 4.00647588,36.0900013 4.0197955,31.6419311 C4.04668493,22.7077982 10.6165995,19.1113493 18.7101932,23.5974122 C26.8031777,28.070616 33.3596892,38.9493914 33.3335706,47.8706653" id="Fill-427" fill="#FC755F"></path>
                            <path d="M21.5794133,35.0032927 C22.4506093,35.7847736 22.9331178,40.5642571 23.1615783,40.6910944 C23.2395595,40.6455031 23.358359,40.362019 23.4844692,39.9189655 C23.5752441,40.0633378 23.6721114,40.3146742 23.7141481,40.7518827 C23.7957847,41.6052575 23.8762028,42.7315954 23.3406914,42.4346677 C23.2815962,42.40252 23.2164089,42.3534217 23.142083,42.2844504 C23.1177139,42.3499147 22.6614022,43.6025053 21.7207542,44.4973799 C20.9829791,45.1987838 19.9631314,45.6394993 18.6697404,44.9807641 C17.4537214,44.253642 16.4850489,42.8186864 15.7661599,41.3878223 C14.7511861,39.3660254 14.261976,37.4517771 14.2363884,37.3512425 C14.1620626,37.3377989 14.096266,37.3144188 14.0377801,37.2816866 C13.5022687,36.9847589 13.5881699,35.9513571 13.6667603,35.1868268 C13.7313384,34.6257036 13.909233,34.5760208 14.0182848,34.602908 C14.0785984,34.8571669 14.1224628,35.0032927 14.1248997,35.0108913 C14.0444816,34.083869 14.4051446,33.0025379 14.628122,32.4373232 C14.692091,32.3198381 14.7627614,32.2105359 14.8395241,32.1082479 C15.6430958,33.1808114 16.5014981,33.8851379 17.3276112,34.342804 C19.5738348,35.5872115 21.4788907,35.0325179 21.5794133,35.0032927" id="Fill-429" fill="#FCCCB5"></path>
                            <path d="M15.7515993,43.579359 L15.7564732,44.7308305 C15.7528178,45.970562 16.6636136,47.483841 17.7882485,48.1069216 L19.6738091,49.151429 C20.7990532,49.7745095 21.7068028,49.2683296 21.7104582,48.0285981 L21.7141136,46.8794646 L21.6915721,57.2543982 C20.7015767,56.948703 19.6695445,56.4986355 18.6204539,55.9176392 C17.6310677,55.3693751 16.6587398,54.728175 15.7205287,53.9934543 L15.7515993,43.579359 Z" id="Fill-431" fill="#FFFFFF"></path>
                            <path d="M21.7206932,44.4974968 L21.7139917,46.8793477 L21.7103364,48.0290657 C21.706681,49.2687972 20.7989313,49.7743926 19.6742965,49.1513121 L17.7881266,48.1068047 C16.6634918,47.4837241 15.7526959,45.9704451 15.7563404,44.7307136 L15.7600067,43.5815801 L15.7667082,41.3879392 C16.484988,42.8188033 17.4536605,44.2537589 18.6696795,44.980881 C19.9630705,45.6396162 20.9835274,45.1989007 21.7206932,44.4974968" id="Fill-433" fill="#F4C3B0"></path>
                            <path d="M14.8395241,32.1084817 C14.7627614,32.2101852 14.692091,32.3194874 14.628122,32.4369725 C14.7237708,32.1949882 14.7907859,32.0552919 14.7944413,32.0476933 C14.809672,32.0687354 14.8249027,32.0886086 14.8395241,32.1084817" id="Fill-435" fill="#EDEDED"></path>
                            <path d="M18.7685572,28.9901566 C19.4752617,29.3817738 20.1911046,29.9405589 20.8125171,30.6933992 C21.4022498,31.4082467 21.6136519,31.6578296 21.6294918,31.6671817 C21.6629994,31.6853013 20.8557723,30.6717726 20.8131263,30.6185828 C20.9166951,30.6811246 22.8845015,31.8600678 23.6393349,34.5470294 C24.1912955,36.502193 23.8154018,38.7595447 23.484591,39.9191993 C23.3584808,40.3622528 23.2390721,40.6451524 23.1805862,40.6907437 C22.9326305,40.5644909 22.4501219,35.7850074 21.5795351,35.0035265 C21.4790125,35.0321672 19.5733474,35.5868608 17.327733,34.3430378 C16.5010107,33.8853717 15.6432177,33.1804607 14.839646,32.1084817 C14.8244153,32.0886086 14.8091846,32.0687354 14.7945631,32.0476933 C14.7909077,32.0552919 14.7238927,32.1949882 14.6282439,32.4369725 C14.4046572,33.0027717 14.0446035,34.0841028 14.1250216,35.0111251 C14.1225846,35.0035265 14.0787202,34.8568162 14.0184067,34.6031418 C13.8094415,33.7269713 13.4256278,31.6589986 14.1378153,30.5916956 C14.0982155,30.5449353 13.3446005,29.6570748 13.7393802,27.9333746 C13.7509556,27.9450647 13.9690592,28.1636689 14.2980423,28.3460339 C14.6477392,28.5395045 15.109534,28.6786163 15.5250275,28.4278644 C16.0520097,28.102296 17.391702,28.2273797 18.7685572,28.9901566" id="Fill-437" fill="#474756"></path>
                            <path d="M15.7358203,43.5701823 L15.7358203,53.9965522 C12.8084799,51.7380314 10.2180425,48.735438 8.23317776,45.378051 C8.46833976,44.0225878 8.80463361,42.8611798 9.2420593,42.7962999 C10.0163881,42.6671247 12.977236,42.8278631 15.7358203,43.5701823" id="Fill-439" fill="#BF66F1"></path>
                            <path d="M29.1941538,56.8054412 C27.2086798,58.000166 24.6182424,58.1936366 21.690902,57.2578468 L21.7244095,46.8957723 C24.4836031,49.1876097 27.444451,52.3182094 28.2181706,53.318879 C28.6220887,53.83558 28.9583826,55.255923 29.1941538,56.8054412" id="Fill-441" fill="#BF66F1"></path>
                            <path d="M32.6728456,67.0787882 C33.3594455,67.4592998 33.9077507,68.3752165 33.9053219,69.1268878 L33.8943477,72.8355612 C33.8919107,73.587817 33.3405594,73.8940967 32.6539595,73.513585 L4.89996964,58.1405637 C4.21702507,57.7623901 3.66506452,56.8441354 3.6674934,56.0924641 L3.67785831,52.3837907 C3.68029522,51.6315349 4.23652037,51.3275932 4.91885571,51.7051823 L32.6728456,67.0787882 Z" id="Fill-443" fill="#FFFFFF"></path>
                            <path d="M32.6457349,76.2664202 C33.3323348,76.6469319 33.8800308,77.5622641 33.8782077,78.3145198 L33.867237,82.0231933 C33.8648001,82.775449 33.3134488,83.0817287 32.6268488,82.7012171 L4.87285899,67.3281957 C4.18991443,66.9500221 3.63795388,66.0317674 3.63977704,65.2795117 L3.65074767,61.5708382 C3.65318458,60.819167 4.20940972,60.5152253 4.89174506,60.8928144 L32.6457349,76.2664202 Z" id="Fill-445" fill="#FFFFFF"></path>
                            <path d="M22.4384856,63.9744327 C22.9490187,64.2573323 23.3675583,64.9517222 23.3657366,65.5151834 C23.3639029,66.0868276 22.9435356,66.3089389 22.4323934,66.0254548 C21.9139404,65.7384637 21.5033207,65.0563483 21.5051423,64.4847041 C21.5069761,63.9212429 21.9200326,63.6874416 22.4384856,63.9744327" id="Fill-447" fill="#2D2D37"></path>
                            <path d="M18.39705,61.735785 C18.9081923,62.0186846 19.3261227,62.7130746 19.324301,63.2765358 C19.3230765,63.84818 18.9021,64.0702912 18.3909577,63.7868071 C17.8725047,63.499816 17.461885,62.8177007 17.4637067,62.2460564 C17.4655404,61.6825952 17.878597,61.4487939 18.39705,61.735785" id="Fill-449" fill="#2D2D37"></path>
                            <path d="M14.355858,59.4973712 C14.8663911,59.7802708 15.2843215,60.4746607 15.2831057,61.0381219 C15.2812753,61.6097661 14.860908,61.8312929 14.3497658,61.5483933 C13.8313127,61.2614022 13.4206931,60.5792868 13.4225147,60.0076426 C13.4243485,59.4441814 13.837405,59.2097956 14.355858,59.4973712" id="Fill-451" fill="#2D2D37"></path>
                            <path d="M10.3143615,57.2586651 C10.8248945,57.5415647 11.2434341,58.2359546 11.2416124,58.7994158 C11.2397788,59.37106 10.8194115,59.5931713 10.3082692,59.3096872 C9.78981617,59.0226961 9.37919652,58.3405807 9.38101812,57.7689365 C9.38285188,57.2054753 9.79590845,56.9710895 10.3143615,57.2586651" id="Fill-453" fill="#2D2D37"></path>
                            <path d="M6.27286489,55.019959 C6.78400717,55.3028586 7.20193756,55.9972485 7.20011585,56.5607097 C7.19889142,57.1323539 6.77791489,57.3544652 6.26677261,57.0709811 C5.7483196,56.78399 5.33769994,56.1018746 5.33952155,55.5302304 C5.34135531,54.9667692 5.75441188,54.7329679 6.27286489,55.019959" id="Fill-455" fill="#2D2D37"></path>
                            <path d="M22.4384856,72.9871814 C22.9490187,73.270081 23.3675583,73.9644709 23.3657366,74.5279321 C23.3639029,75.0995763 22.9435356,75.3216876 22.4323934,75.0382034 C21.9139404,74.7512123 21.5033207,74.069097 21.5051423,73.4974527 C21.5069761,72.9339916 21.9200326,72.7001902 22.4384856,72.9871814" id="Fill-457" fill="#2D2D37"></path>
                            <path d="M18.39705,70.7484753 C18.9081923,71.0313749 19.3261227,71.7257648 19.324301,72.289226 C19.3230765,72.8608702 18.9021,73.0829815 18.3909577,72.7994974 C17.8725047,72.5125062 17.461885,71.8303909 17.4637067,71.2587466 C17.4655404,70.69587 17.878597,70.4614841 18.39705,70.7484753" id="Fill-459" fill="#2D2D37"></path>
                            <path d="M14.355858,68.5100614 C14.8663911,68.792961 15.2843215,69.4873509 15.2831057,70.0508121 C15.2812753,70.6224564 14.860908,70.8439831 14.3497658,70.5610835 C13.8313127,70.2740924 13.4206931,69.591977 13.4225147,69.0203328 C13.4243485,68.4568716 13.837405,68.2230703 14.355858,68.5100614" id="Fill-461" fill="#2D2D37"></path>
                            <path d="M10.3143615,66.2713553 C10.8248945,66.5542549 11.2434341,67.2486448 11.2416124,67.812106 C11.2397788,68.3837503 10.8194115,68.6058615 10.3082692,68.3223774 C9.78981617,68.0353863 9.37919652,67.3532709 9.38101812,66.7816267 C9.38285188,66.2181655 9.79590845,65.9837797 10.3143615,66.2713553" id="Fill-463" fill="#2D2D37"></path>
                            <path d="M6.27286489,64.0326492 C6.78400717,64.3155488 7.20193756,65.0099387 7.20011585,65.5733999 C7.19889142,66.1450442 6.77791489,66.3671554 6.26677261,66.0836713 C5.7483196,65.7966802 5.33769994,65.1145648 5.33952155,64.5429206 C5.34135531,63.9794594 5.75441188,63.7456581 6.27286489,64.0326492" id="Fill-465" fill="#2D2D37"></path>
                        </g>
                    </g>
                </g>
            </g>
        </g>
    </g>
</svg>